<?xml version="1.0" encoding="utf-8" standalone="no"?>
<!DOCTYPE svg PUBLIC "-//W3C//DTD SVG 1.1//EN"
  "http://www.w3.org/Graphics/SVG/1.1/DTD/svg11.dtd">
<svg xmlns:xlink="http://www.w3.org/1999/xlink" width="532.802983pt" height="317.075767pt" viewBox="0 0 532.802983 317.075767" xmlns="http://www.w3.org/2000/svg" version="1.1">
 <metadata>
  <rdf:RDF xmlns:dc="http://purl.org/dc/elements/1.1/" xmlns:cc="http://creativecommons.org/ns#" xmlns:rdf="http://www.w3.org/1999/02/22-rdf-syntax-ns#">
   <cc:Work>
    <dc:type rdf:resource="http://purl.org/dc/dcmitype/StillImage"/>
    <dc:date>2026-06-29T00:08:02.437335</dc:date>
    <dc:format>image/svg+xml</dc:format>
    <dc:creator>
     <cc:Agent>
      <dc:title>Matplotlib v3.10.8, https://matplotlib.org/</dc:title>
     </cc:Agent>
    </dc:creator>
   </cc:Work>
  </rdf:RDF>
 </metadata>
 <defs>
  <style type="text/css">*{stroke-linejoin: round; stroke-linecap: butt}</style>
 </defs>
 <g id="figure_1">
  <g id="patch_1">
   <path d="M 0 317.075767 
L 532.802983 317.075767 
L 532.802983 0 
L 0 0 
z
" style="fill: #ffffff"/>
  </g>
  <g id="axes_1">
   <g id="patch_2">
    <path d="M 48.148438 278.636705 
L 525.602983 278.636705 
L 525.602983 22.69125 
L 48.148438 22.69125 
z
" style="fill: #ffffff"/>
   </g>
   <g id="matplotlib.axis_1">
    <g id="xtick_1">
     <g id="line2d_1">
      <path d="M 69.850917 278.636705 
L 69.850917 22.69125 
" clip-path="url(#pd715a0ee8c)" style="fill: none; stroke: #b0b0b0; stroke-opacity: 0.3; stroke-width: 0.8; stroke-linecap: square"/>
     </g>
     <g id="line2d_2">
      <defs>
       <path id="mc0ba124bdf" d="M 0 0 
L 0 3.5 
" style="stroke: #000000; stroke-width: 0.8"/>
      </defs>
      <g>
       <use xlink:href="#mc0ba124bdf" x="69.850917" y="278.636705" style="stroke: #000000; stroke-width: 0.8"/>
      </g>
     </g>
     <g id="text_1">
      <!-- 80 -->
      <g transform="translate(63.121229 293.34608) scale(0.1 -0.1)">
       <defs>
        <path id="HiraginoSans-W4-38" d="M 1446 2586 
C 1203 2547 1056 2490 851 2355 
C 480 2106 294 1754 294 1299 
C 294 397 966 -102 2163 -102 
C 3347 -102 4006 397 4006 1299 
C 4006 1728 3853 2061 3539 2304 
C 3322 2470 3136 2547 2867 2586 
C 3437 2714 3789 3162 3789 3757 
C 3789 4550 3162 5043 2150 5043 
C 1146 5043 512 4544 512 3750 
C 512 3162 877 2701 1446 2586 
z
M 2150 4538 
C 2784 4538 3187 4211 3187 3699 
C 3187 3155 2797 2829 2157 2829 
C 1510 2829 1114 3162 1114 3699 
C 1114 4211 1523 4538 2150 4538 
z
M 2157 2304 
C 2912 2304 3373 1939 3373 1344 
C 3373 749 2925 410 2144 410 
C 1376 410 928 749 928 1338 
C 928 1939 1389 2304 2157 2304 
z
" transform="scale(0.015625)"/>
        <path id="HiraginoSans-W4-30" d="M 2144 -90 
C 2758 -90 3232 141 3565 602 
C 3846 998 4019 1696 4019 2464 
C 4019 3002 3936 3501 3770 3949 
C 3693 4160 3558 4371 3379 4550 
C 3078 4858 2650 5024 2157 5024 
C 1498 5024 986 4742 666 4205 
C 435 3834 288 3142 288 2458 
C 288 1939 371 1434 538 986 
C 614 768 749 563 928 384 
C 1242 70 1651 -90 2144 -90 
z
M 2144 4499 
C 2592 4499 2918 4307 3123 3923 
C 3283 3629 3398 3014 3398 2470 
C 3398 2022 3341 1619 3213 1235 
C 3155 1043 3046 870 2912 730 
C 2726 538 2458 435 2150 435 
C 1734 435 1414 614 1197 973 
C 1024 1261 902 1875 902 2451 
C 902 2906 966 3328 1088 3699 
C 1139 3866 1235 4026 1370 4173 
C 1568 4397 1818 4499 2144 4499 
z
" transform="scale(0.015625)"/>
       </defs>
       <use xlink:href="#HiraginoSans-W4-38"/>
       <use xlink:href="#HiraginoSans-W4-30" transform="translate(67.299988 0)"/>
      </g>
     </g>
    </g>
    <g id="xtick_2">
     <g id="line2d_3">
      <path d="M 142.192515 278.636705 
L 142.192515 22.69125 
" clip-path="url(#pd715a0ee8c)" style="fill: none; stroke: #b0b0b0; stroke-opacity: 0.3; stroke-width: 0.8; stroke-linecap: square"/>
     </g>
     <g id="line2d_4">
      <g>
       <use xlink:href="#mc0ba124bdf" x="142.192515" y="278.636705" style="stroke: #000000; stroke-width: 0.8"/>
      </g>
     </g>
     <g id="text_2">
      <!-- 90 -->
      <g transform="translate(135.462827 293.34608) scale(0.1 -0.1)">
       <defs>
        <path id="HiraginoSans-W4-39" d="M 410 934 
C 582 576 698 422 896 262 
C 1178 32 1542 -77 2003 -77 
C 2586 -77 3014 102 3341 486 
C 3712 928 3910 1664 3910 2624 
C 3910 3302 3814 3821 3610 4186 
C 3315 4723 2765 5037 2118 5037 
C 1030 5037 326 4358 326 3315 
C 326 2861 486 2438 768 2157 
C 1050 1875 1472 1722 1958 1722 
C 2426 1722 2765 1843 3085 2125 
C 3213 2240 3270 2310 3366 2483 
C 3354 2189 3334 1958 3315 1818 
C 3270 1517 3168 1216 3046 1011 
C 2816 621 2496 435 2042 435 
C 1702 435 1427 538 1254 723 
C 1158 826 1114 915 1037 1120 
L 410 934 
z
M 2029 2221 
C 1357 2221 928 2662 928 3360 
C 928 3706 1030 3981 1248 4192 
C 1459 4403 1754 4525 2067 4525 
C 2733 4525 3232 4032 3232 3366 
C 3232 2707 2720 2221 2029 2221 
z
" transform="scale(0.015625)"/>
       </defs>
       <use xlink:href="#HiraginoSans-W4-39"/>
       <use xlink:href="#HiraginoSans-W4-30" transform="translate(67.299988 0)"/>
      </g>
     </g>
    </g>
    <g id="xtick_3">
     <g id="line2d_5">
      <path d="M 214.534112 278.636705 
L 214.534112 22.69125 
" clip-path="url(#pd715a0ee8c)" style="fill: none; stroke: #b0b0b0; stroke-opacity: 0.3; stroke-width: 0.8; stroke-linecap: square"/>
     </g>
     <g id="line2d_6">
      <g>
       <use xlink:href="#mc0ba124bdf" x="214.534112" y="278.636705" style="stroke: #000000; stroke-width: 0.8"/>
      </g>
     </g>
     <g id="text_3">
      <!-- 100 -->
      <g transform="translate(204.439581 293.34608) scale(0.1 -0.1)">
       <defs>
        <path id="HiraginoSans-W4-31" d="M 1018 4371 
C 1222 4397 1389 4410 1606 4410 
L 1939 4410 
L 1939 755 
C 1939 454 1926 237 1888 0 
L 2598 0 
C 2560 250 2547 448 2547 755 
L 2547 3904 
C 2547 4256 2566 4582 2605 4966 
C 2387 4941 2278 4934 2035 4934 
L 1581 4934 
C 1325 4934 1197 4941 1018 4966 
L 1018 4371 
z
" transform="scale(0.015625)"/>
       </defs>
       <use xlink:href="#HiraginoSans-W4-31"/>
       <use xlink:href="#HiraginoSans-W4-30" transform="translate(67.299988 0)"/>
       <use xlink:href="#HiraginoSans-W4-30" transform="translate(134.599976 0)"/>
      </g>
     </g>
    </g>
    <g id="xtick_4">
     <g id="line2d_7">
      <path d="M 286.87571 278.636705 
L 286.87571 22.69125 
" clip-path="url(#pd715a0ee8c)" style="fill: none; stroke: #b0b0b0; stroke-opacity: 0.3; stroke-width: 0.8; stroke-linecap: square"/>
     </g>
     <g id="line2d_8">
      <g>
       <use xlink:href="#mc0ba124bdf" x="286.87571" y="278.636705" style="stroke: #000000; stroke-width: 0.8"/>
      </g>
     </g>
     <g id="text_4">
      <!-- 110 -->
      <g transform="translate(276.781179 293.34608) scale(0.1 -0.1)">
       <use xlink:href="#HiraginoSans-W4-31"/>
       <use xlink:href="#HiraginoSans-W4-31" transform="translate(67.299988 0)"/>
       <use xlink:href="#HiraginoSans-W4-30" transform="translate(134.599976 0)"/>
      </g>
     </g>
    </g>
    <g id="xtick_5">
     <g id="line2d_9">
      <path d="M 359.217308 278.636705 
L 359.217308 22.69125 
" clip-path="url(#pd715a0ee8c)" style="fill: none; stroke: #b0b0b0; stroke-opacity: 0.3; stroke-width: 0.8; stroke-linecap: square"/>
     </g>
     <g id="line2d_10">
      <g>
       <use xlink:href="#mc0ba124bdf" x="359.217308" y="278.636705" style="stroke: #000000; stroke-width: 0.8"/>
      </g>
     </g>
     <g id="text_5">
      <!-- 120 -->
      <g transform="translate(349.122777 293.34608) scale(0.1 -0.1)">
       <defs>
        <path id="HiraginoSans-W4-32" d="M 3078 0 
C 3424 0 3642 -6 3917 -32 
L 3917 589 
C 3693 557 3430 544 3091 544 
L 1114 544 
C 1280 1114 1606 1478 2451 2042 
C 3181 2528 3341 2656 3546 2912 
C 3738 3142 3846 3443 3846 3744 
C 3846 4525 3200 5030 2202 5030 
C 1613 5030 1158 4858 858 4518 
C 640 4269 531 4026 442 3565 
L 1088 3469 
C 1139 3782 1190 3936 1306 4102 
C 1491 4371 1792 4506 2208 4506 
C 2816 4506 3206 4211 3206 3744 
C 3206 3360 2995 3085 2387 2675 
C 1754 2246 1600 2138 1389 1952 
C 979 1594 710 1229 544 806 
C 448 563 429 461 365 -26 
C 576 -6 678 0 1107 0 
L 3078 0 
z
" transform="scale(0.015625)"/>
       </defs>
       <use xlink:href="#HiraginoSans-W4-31"/>
       <use xlink:href="#HiraginoSans-W4-32" transform="translate(67.299988 0)"/>
       <use xlink:href="#HiraginoSans-W4-30" transform="translate(134.599976 0)"/>
      </g>
     </g>
    </g>
    <g id="xtick_6">
     <g id="line2d_11">
      <path d="M 431.558906 278.636705 
L 431.558906 22.69125 
" clip-path="url(#pd715a0ee8c)" style="fill: none; stroke: #b0b0b0; stroke-opacity: 0.3; stroke-width: 0.8; stroke-linecap: square"/>
     </g>
     <g id="line2d_12">
      <g>
       <use xlink:href="#mc0ba124bdf" x="431.558906" y="278.636705" style="stroke: #000000; stroke-width: 0.8"/>
      </g>
     </g>
     <g id="text_6">
      <!-- 130 -->
      <g transform="translate(421.464375 293.34608) scale(0.1 -0.1)">
       <defs>
        <path id="HiraginoSans-W4-33" d="M 282 1101 
C 397 768 474 621 621 448 
C 934 90 1434 -96 2112 -96 
C 2720 -96 3213 70 3533 384 
C 3770 614 3904 954 3904 1306 
C 3904 1677 3802 1958 3597 2182 
C 3379 2419 3130 2528 2688 2586 
C 2995 2650 3130 2701 3290 2816 
C 3578 3021 3738 3366 3738 3757 
C 3738 4538 3117 5043 2157 5043 
C 1594 5043 1146 4883 845 4576 
C 666 4390 582 4237 467 3891 
L 1107 3757 
C 1171 3981 1216 4083 1306 4192 
C 1478 4416 1741 4525 2125 4525 
C 2746 4525 3110 4224 3110 3725 
C 3110 3482 3021 3264 2867 3110 
C 2669 2918 2374 2829 1965 2829 
C 1779 2829 1613 2842 1459 2861 
L 1459 2272 
C 1651 2298 1811 2310 2003 2310 
C 2829 2310 3264 1990 3264 1376 
C 3264 794 2816 429 2106 429 
C 1779 429 1510 506 1293 666 
C 1107 800 1024 928 928 1248 
L 282 1101 
z
" transform="scale(0.015625)"/>
       </defs>
       <use xlink:href="#HiraginoSans-W4-31"/>
       <use xlink:href="#HiraginoSans-W4-33" transform="translate(67.299988 0)"/>
       <use xlink:href="#HiraginoSans-W4-30" transform="translate(134.599976 0)"/>
      </g>
     </g>
    </g>
    <g id="xtick_7">
     <g id="line2d_13">
      <path d="M 503.900504 278.636705 
L 503.900504 22.69125 
" clip-path="url(#pd715a0ee8c)" style="fill: none; stroke: #b0b0b0; stroke-opacity: 0.3; stroke-width: 0.8; stroke-linecap: square"/>
     </g>
     <g id="line2d_14">
      <g>
       <use xlink:href="#mc0ba124bdf" x="503.900504" y="278.636705" style="stroke: #000000; stroke-width: 0.8"/>
      </g>
     </g>
     <g id="text_7">
      <!-- 140 -->
      <g transform="translate(493.795816 293.34608) scale(0.1 -0.1)">
       <defs>
        <path id="HiraginoSans-W4-34" d="M 179 1210 
C 403 1229 589 1235 954 1235 
L 2688 1235 
L 2688 710 
C 2688 410 2675 218 2630 0 
L 3309 0 
C 3270 230 3258 390 3258 704 
L 3258 1235 
L 3494 1235 
C 3763 1235 3910 1222 4154 1190 
L 4154 1798 
C 3917 1766 3750 1754 3494 1754 
L 3258 1754 
L 3258 3853 
C 3258 4358 3264 4544 3296 4934 
L 2701 4934 
C 2560 4704 2445 4550 2214 4269 
L 621 2298 
C 467 2099 326 1939 179 1773 
L 179 1210 
z
M 2688 1747 
L 858 1747 
L 2259 3514 
C 2464 3763 2592 3936 2720 4128 
C 2694 3814 2688 3622 2688 3283 
L 2688 1747 
z
" transform="scale(0.015625)"/>
       </defs>
       <use xlink:href="#HiraginoSans-W4-31"/>
       <use xlink:href="#HiraginoSans-W4-34" transform="translate(67.299988 0)"/>
       <use xlink:href="#HiraginoSans-W4-30" transform="translate(134.799973 0)"/>
      </g>
     </g>
    </g>
    <g id="text_8">
     <!-- 確保容量 q [万kW] -->
     <g transform="translate(243.511648 307.825767) scale(0.1 -0.1)">
      <defs>
       <path id="HiraginoSans-W4-78ba" d="M 2234 2355 
C 2342 2234 2419 2125 2496 1958 
C 2682 2150 2784 2278 2886 2438 
C 2880 2400 2874 2208 2867 1856 
L 2867 160 
C 2867 -154 2854 -320 2822 -518 
L 3302 -518 
L 3302 -211 
L 5402 -211 
C 5619 -211 5792 -224 6010 -250 
L 6010 230 
C 5830 205 5690 198 5402 198 
L 4659 198 
L 4659 870 
L 5229 870 
C 5440 870 5568 864 5786 838 
L 5786 1293 
C 5619 1267 5491 1261 5216 1261 
L 4659 1261 
L 4659 1888 
L 5229 1888 
C 5434 1888 5581 1882 5786 1856 
L 5786 2310 
C 5632 2285 5498 2278 5216 2278 
L 4659 2278 
L 4659 2912 
L 5325 2912 
C 5517 2912 5664 2906 5875 2886 
L 5875 3341 
C 5702 3315 5587 3309 5312 3309 
L 4774 3309 
C 4845 3437 4915 3603 4992 3808 
C 5005 3834 5018 3872 5037 3923 
L 4582 4026 
C 4525 3776 4435 3539 4320 3309 
L 3533 3309 
C 3757 3674 3872 3898 4026 4275 
L 5562 4275 
L 5562 3597 
L 6048 3597 
C 6029 3718 6022 3814 6022 3968 
L 6022 4301 
C 6022 4499 6029 4621 6042 4736 
C 5862 4710 5677 4704 5421 4704 
L 4179 4704 
C 4211 4794 4275 4998 4378 5318 
L 3878 5395 
C 3840 5165 3789 4960 3712 4704 
L 3002 4704 
C 2650 4704 2592 4704 2470 4723 
C 2477 4576 2483 4467 2483 4397 
L 2483 3968 
C 2483 3814 2477 3686 2458 3578 
L 2918 3578 
L 2918 4275 
L 3558 4275 
C 3373 3821 3226 3558 2963 3187 
C 2720 2835 2573 2669 2234 2368 
L 2234 2598 
C 2234 2816 2240 2957 2253 3104 
C 2131 3085 2022 3078 1862 3078 
L 1178 3078 
C 1389 3674 1485 4045 1587 4653 
L 1926 4653 
C 2099 4653 2189 4646 2368 4627 
L 2368 5120 
C 2182 5088 2042 5082 1805 5082 
L 966 5082 
C 723 5082 550 5094 378 5120 
L 378 4614 
C 557 4646 685 4653 928 4653 
L 1126 4653 
C 1062 4198 1005 3930 896 3571 
C 698 2950 474 2515 128 2080 
C 237 1926 269 1869 371 1613 
C 531 1830 627 1997 781 2342 
C 762 2138 749 1805 749 1709 
L 749 282 
C 749 13 736 -166 710 -339 
L 1190 -339 
L 1190 307 
L 1811 307 
L 1811 -45 
L 2253 -45 
C 2240 102 2234 230 2234 480 
L 2234 2355 
z
M 3302 2278 
L 3302 2912 
L 4237 2912 
L 4237 2278 
L 3302 2278 
z
M 3302 1888 
L 4237 1888 
L 4237 1261 
L 3302 1261 
L 3302 1888 
z
M 3302 870 
L 4237 870 
L 4237 198 
L 3302 198 
L 3302 870 
z
M 1190 2656 
L 1811 2656 
L 1811 736 
L 1190 736 
L 1190 2656 
z
" transform="scale(0.015625)"/>
       <path id="HiraginoSans-W4-4fdd" d="M 3686 2419 
L 2515 2419 
C 2253 2419 2042 2432 1856 2458 
L 1856 1939 
C 2042 1965 2266 1978 2515 1978 
L 3501 1978 
C 3258 1600 3123 1453 2822 1178 
C 2426 826 2086 595 1613 358 
C 1773 205 1830 122 1939 -77 
C 2272 115 2490 269 2797 531 
C 3213 896 3430 1152 3712 1619 
C 3693 1363 3686 1178 3686 928 
L 3686 134 
C 3686 -83 3674 -294 3648 -486 
L 4192 -486 
C 4166 -301 4154 -102 4154 128 
L 4154 928 
C 4154 1171 4147 1389 4128 1619 
C 4416 1171 4608 954 4960 640 
C 5254 384 5523 192 5920 -51 
C 6035 147 6118 269 6253 422 
C 5811 627 5498 819 5126 1126 
C 4800 1395 4634 1574 4326 1978 
L 5427 1978 
C 5619 1978 5843 1965 6067 1939 
L 6067 2458 
C 5875 2432 5658 2419 5414 2419 
L 4154 2419 
L 4154 3066 
L 4998 3066 
C 5229 3066 5549 3053 5664 3040 
C 5645 3206 5638 3354 5638 3616 
L 5638 4467 
C 5638 4742 5645 4851 5664 5056 
C 5478 5030 5306 5024 4960 5024 
L 3034 5024 
C 2682 5024 2509 5030 2330 5056 
C 2349 4870 2355 4730 2355 4486 
L 2355 3629 
C 2355 3379 2349 3219 2330 3040 
C 2534 3059 2688 3066 3002 3066 
L 3686 3066 
L 3686 2419 
z
M 2829 4589 
L 5152 4589 
L 5152 3501 
L 2829 3501 
L 2829 4589 
z
M 1011 282 
C 1011 -45 998 -237 973 -480 
L 1510 -480 
C 1485 -224 1478 -19 1478 269 
L 1478 3699 
C 1709 4154 1875 4544 1978 4877 
C 2035 5069 2061 5139 2099 5229 
L 1581 5395 
C 1549 5178 1453 4832 1331 4512 
C 1043 3776 666 3187 134 2662 
C 262 2490 282 2458 365 2285 
C 371 2266 390 2227 410 2182 
C 717 2515 851 2694 1030 3014 
C 1018 2746 1011 2502 1011 2266 
L 1011 282 
z
" transform="scale(0.015625)"/>
       <path id="HiraginoSans-W4-5bb9" d="M 2880 4813 
L 1178 4813 
C 922 4813 730 4819 512 4838 
C 531 4704 538 4570 538 4397 
L 538 3968 
C 538 3782 531 3648 512 3514 
L 1011 3514 
L 1011 4365 
L 5414 4365 
L 5414 3514 
L 5907 3514 
C 5888 3654 5882 3776 5882 3968 
L 5882 4397 
C 5882 4576 5888 4704 5907 4838 
C 5690 4819 5504 4813 5248 4813 
L 3379 4813 
L 3379 4979 
C 3379 5126 3392 5229 3418 5376 
L 2842 5376 
C 2867 5235 2880 5126 2880 4973 
L 2880 4813 
z
M 1402 83 
C 1402 -122 1389 -314 1363 -506 
L 1882 -506 
L 1882 -198 
L 4518 -198 
L 4518 -506 
L 5037 -506 
C 5011 -320 4998 -141 4998 83 
L 4998 1453 
C 5331 1248 5504 1152 5862 973 
C 5946 1190 6003 1299 6125 1446 
C 5555 1670 5139 1888 4685 2208 
C 4122 2598 3731 2982 3450 3424 
L 2970 3424 
C 2714 3027 2342 2650 1837 2272 
C 1363 1914 870 1638 320 1421 
C 448 1267 506 1165 582 979 
C 992 1197 1133 1274 1402 1453 
L 1402 83 
z
M 1914 1805 
C 2464 2195 2810 2515 3219 3027 
C 3629 2496 3878 2246 4486 1805 
L 1914 1805 
z
M 1882 1363 
L 4518 1363 
L 4518 250 
L 1882 250 
L 1882 1363 
z
M 2195 4141 
C 1882 3757 1702 3578 1389 3347 
C 1126 3155 947 3053 614 2906 
C 781 2765 851 2688 966 2522 
C 1325 2720 1498 2835 1798 3078 
C 2125 3354 2298 3526 2605 3904 
L 2195 4141 
z
M 3750 3891 
C 4416 3187 4736 2944 5562 2534 
C 5664 2739 5715 2810 5837 2957 
C 5056 3290 4710 3539 4141 4147 
L 3750 3891 
z
" transform="scale(0.015625)"/>
       <path id="HiraginoSans-W4-91cf" d="M 2957 1062 
L 2957 742 
L 1382 742 
C 1114 742 973 749 838 768 
L 838 365 
C 1005 384 1146 390 1402 390 
L 2957 390 
L 2957 64 
L 1024 64 
C 717 64 550 70 346 102 
L 346 -339 
C 544 -314 742 -301 1024 -301 
L 5382 -301 
C 5658 -301 5875 -314 6061 -339 
L 6061 102 
C 5850 70 5690 64 5382 64 
L 3405 64 
L 3405 390 
L 5050 390 
C 5299 390 5440 384 5606 365 
L 5606 768 
C 5472 749 5331 742 5069 742 
L 3405 742 
L 3405 1062 
L 4710 1062 
C 4928 1062 5069 1056 5312 1037 
C 5299 1152 5293 1312 5293 1549 
L 5293 2240 
C 5293 2438 5299 2554 5312 2682 
C 5126 2662 4973 2656 4723 2656 
L 1715 2656 
C 1427 2656 1242 2662 1107 2682 
C 1120 2522 1126 2406 1126 2227 
L 1126 1562 
C 1126 1286 1120 1197 1107 1037 
C 1299 1056 1459 1062 1709 1062 
L 2957 1062 
z
M 2957 2330 
L 2957 2016 
L 1568 2016 
L 1568 2330 
L 2957 2330 
z
M 3405 2330 
L 4851 2330 
L 4851 2016 
L 3405 2016 
L 3405 2330 
z
M 2957 1702 
L 2957 1382 
L 1568 1382 
L 1568 1702 
L 2957 1702 
z
M 3405 1702 
L 4851 1702 
L 4851 1382 
L 3405 1382 
L 3405 1702 
z
M 4781 3616 
C 5146 3616 5261 3610 5421 3597 
C 5402 3757 5395 3904 5395 4096 
L 5395 4691 
C 5395 4896 5402 5011 5421 5165 
C 5222 5146 5082 5139 4787 5139 
L 1632 5139 
C 1338 5139 1184 5146 986 5165 
C 1005 5005 1011 4896 1011 4691 
L 1011 4096 
C 1011 3866 1005 3738 986 3597 
C 1146 3610 1267 3616 1626 3616 
L 4781 3616 
z
M 1459 4813 
L 4947 4813 
L 4947 4538 
L 1459 4538 
L 1459 4813 
z
M 1453 4224 
L 4941 4224 
L 4941 3930 
L 1453 3930 
L 1453 4224 
z
M 346 2925 
C 512 2950 678 2957 986 2957 
L 5427 2957 
C 5747 2957 5894 2950 6061 2925 
L 6061 3366 
C 5888 3341 5709 3334 5421 3334 
L 992 3334 
C 704 3334 518 3341 346 3366 
L 346 2925 
z
" transform="scale(0.015625)"/>
       <path id="HiraginoSans-W4-20" transform="scale(0.015625)"/>
       <path id="HiraginoSans-W4-71" d="M 3808 -1312 
C 3776 -1056 3763 -851 3763 -557 
L 3763 2752 
C 3763 3085 3776 3270 3808 3520 
L 3200 3520 
L 3200 3194 
C 3200 3110 3200 3059 3213 2944 
C 2906 3379 2483 3590 1907 3590 
C 915 3590 282 2874 282 1766 
C 282 640 902 -51 1920 -51 
C 2464 -51 2893 154 3213 570 
C 3200 390 3194 314 3194 128 
L 3194 -550 
C 3194 -864 3181 -1062 3149 -1312 
L 3808 -1312 
z
M 877 1754 
C 877 2598 1293 3091 1997 3091 
C 2707 3091 3187 2560 3187 1773 
C 3187 979 2701 442 1978 442 
C 1286 442 877 934 877 1754 
z
" transform="scale(0.015625)"/>
       <path id="HiraginoSans-W4-5b" d="M 2176 -480 
L 1382 -480 
L 1382 4435 
L 2176 4435 
L 2176 4934 
L 813 4934 
L 813 -979 
L 2176 -979 
L 2176 -480 
z
" transform="scale(0.015625)"/>
       <path id="HiraginoSans-W4-4e07" d="M 2285 4467 
C 2259 3290 2144 2573 1875 1882 
C 1542 1050 1088 499 282 -58 
C 448 -179 557 -288 678 -474 
C 1229 -64 1568 282 1875 755 
C 2278 1370 2509 1978 2656 2829 
L 4845 2829 
C 4813 1882 4742 1152 4627 640 
C 4538 218 4454 134 4122 134 
C 3814 134 3526 166 2995 262 
C 3066 90 3098 -58 3117 -275 
C 3501 -320 3853 -346 4090 -346 
C 4666 -346 4902 -218 5050 186 
C 5197 608 5318 1594 5363 2765 
C 5376 3117 5382 3200 5402 3328 
C 5222 3302 5011 3296 4634 3296 
L 2726 3296 
C 2771 3680 2771 3680 2810 4467 
L 5344 4467 
C 5626 4467 5856 4454 6067 4429 
L 6067 4979 
C 5850 4954 5632 4941 5344 4941 
L 1094 4941 
C 806 4941 582 4954 371 4979 
L 371 4429 
C 582 4454 819 4467 1101 4467 
L 2285 4467 
z
" transform="scale(0.015625)"/>
       <path id="HiraginoSans-W4-6b" d="M 442 4934 
C 474 4698 486 4518 486 4179 
L 486 755 
C 486 429 474 224 442 0 
L 1101 0 
C 1069 224 1056 442 1056 742 
L 1056 1254 
L 1600 1766 
L 2400 640 
C 2669 269 2733 166 2810 0 
L 3654 0 
C 3507 147 3482 179 3091 691 
L 2010 2112 
L 2906 2957 
C 2912 2963 2957 3008 3021 3066 
C 3110 3155 3187 3226 3251 3283 
C 3424 3437 3424 3437 3514 3520 
L 2624 3520 
C 2534 3373 2426 3258 2157 2995 
L 1056 1926 
L 1056 4179 
C 1056 4518 1069 4704 1101 4934 
L 442 4934 
z
" transform="scale(0.015625)"/>
       <path id="HiraginoSans-W4-57" d="M 2982 4934 
C 2970 4787 2912 4544 2842 4301 
L 2016 1555 
C 1984 1459 1882 1024 1837 787 
C 1773 1120 1702 1453 1670 1574 
L 960 4262 
C 890 4525 851 4736 838 4934 
L 83 4934 
C 179 4723 237 4557 339 4198 
L 1357 646 
C 1504 134 1504 134 1530 0 
L 2125 0 
C 2150 160 2189 301 2285 627 
L 3078 3283 
C 3130 3456 3200 3725 3270 4045 
C 3322 3776 3379 3539 3456 3283 
L 4256 627 
C 4326 410 4397 128 4416 0 
L 5018 0 
C 5043 134 5043 134 5184 646 
L 6202 4198 
C 6304 4563 6355 4710 6451 4934 
L 5702 4934 
C 5696 4755 5651 4512 5587 4262 
L 4877 1581 
C 4858 1517 4800 1254 4710 787 
C 4602 1267 4550 1485 4518 1594 
L 3699 4301 
C 3629 4544 3578 4762 3552 4934 
L 2982 4934 
z
" transform="scale(0.015625)"/>
       <path id="HiraginoSans-W4-5d" d="M 141 -480 
L 141 -979 
L 1504 -979 
L 1504 4934 
L 141 4934 
L 141 4435 
L 934 4435 
L 934 -480 
L 141 -480 
z
" transform="scale(0.015625)"/>
      </defs>
      <use xlink:href="#HiraginoSans-W4-78ba"/>
      <use xlink:href="#HiraginoSans-W4-4fdd" transform="translate(99.999985 0)"/>
      <use xlink:href="#HiraginoSans-W4-5bb9" transform="translate(199.999969 0)"/>
      <use xlink:href="#HiraginoSans-W4-91cf" transform="translate(299.999954 0)"/>
      <use xlink:href="#HiraginoSans-W4-20" transform="translate(399.999939 0)"/>
      <use xlink:href="#HiraginoSans-W4-71" transform="translate(433.299927 0)"/>
      <use xlink:href="#HiraginoSans-W4-20" transform="translate(499.699921 0)"/>
      <use xlink:href="#HiraginoSans-W4-5b" transform="translate(532.999908 0)"/>
      <use xlink:href="#HiraginoSans-W4-4e07" transform="translate(569.299896 0)"/>
      <use xlink:href="#HiraginoSans-W4-6b" transform="translate(669.299881 0)"/>
      <use xlink:href="#HiraginoSans-W4-57" transform="translate(728.899872 0)"/>
      <use xlink:href="#HiraginoSans-W4-5d" transform="translate(830.999863 0)"/>
     </g>
    </g>
   </g>
   <g id="matplotlib.axis_2">
    <g id="ytick_1">
     <g id="line2d_15">
      <path d="M 48.148438 267.00282 
L 525.602983 267.00282 
" clip-path="url(#pd715a0ee8c)" style="fill: none; stroke: #b0b0b0; stroke-opacity: 0.3; stroke-width: 0.8; stroke-linecap: square"/>
     </g>
     <g id="line2d_16">
      <defs>
       <path id="m4921a239d5" d="M 0 0 
L -3.5 0 
" style="stroke: #000000; stroke-width: 0.8"/>
      </defs>
      <g>
       <use xlink:href="#m4921a239d5" x="48.148438" y="267.00282" style="stroke: #000000; stroke-width: 0.8"/>
      </g>
     </g>
     <g id="text_9">
      <!-- 0 -->
      <g transform="translate(34.41875 270.857508) scale(0.1 -0.1)">
       <use xlink:href="#HiraginoSans-W4-30"/>
      </g>
     </g>
    </g>
    <g id="ytick_2">
     <g id="line2d_17">
      <path d="M 48.148438 237.91811 
L 525.602983 237.91811 
" clip-path="url(#pd715a0ee8c)" style="fill: none; stroke: #b0b0b0; stroke-opacity: 0.3; stroke-width: 0.8; stroke-linecap: square"/>
     </g>
     <g id="line2d_18">
      <g>
       <use xlink:href="#m4921a239d5" x="48.148438" y="237.91811" style="stroke: #000000; stroke-width: 0.8"/>
      </g>
     </g>
     <g id="text_10">
      <!-- 25 -->
      <g transform="translate(27.689063 241.772797) scale(0.1 -0.1)">
       <defs>
        <path id="HiraginoSans-W4-35" d="M 1331 4416 
L 2835 4416 
C 3155 4416 3366 4403 3622 4365 
L 3622 4986 
C 3360 4947 3206 4934 2829 4934 
L 1446 4934 
C 1082 4934 954 4941 762 4966 
C 774 4768 774 4762 774 4742 
C 774 4563 774 4518 749 4307 
L 608 2822 
C 589 2566 570 2445 518 2157 
L 1088 2106 
C 1146 2240 1178 2291 1261 2374 
C 1485 2605 1811 2739 2131 2739 
C 2842 2739 3264 2317 3264 1613 
C 3264 902 2803 435 2106 435 
C 1747 435 1440 563 1235 794 
C 1146 902 1101 986 1037 1171 
L 410 1005 
C 557 685 646 544 813 378 
C 1133 64 1562 -96 2099 -96 
C 3194 -96 3885 576 3885 1638 
C 3885 2605 3245 3238 2272 3238 
C 1830 3238 1472 3098 1158 2803 
C 1197 2982 1197 2982 1203 3091 
L 1331 4416 
z
" transform="scale(0.015625)"/>
       </defs>
       <use xlink:href="#HiraginoSans-W4-32"/>
       <use xlink:href="#HiraginoSans-W4-35" transform="translate(67.299988 0)"/>
      </g>
     </g>
    </g>
    <g id="ytick_3">
     <g id="line2d_19">
      <path d="M 48.148438 208.833399 
L 525.602983 208.833399 
" clip-path="url(#pd715a0ee8c)" style="fill: none; stroke: #b0b0b0; stroke-opacity: 0.3; stroke-width: 0.8; stroke-linecap: square"/>
     </g>
     <g id="line2d_20">
      <g>
       <use xlink:href="#m4921a239d5" x="48.148438" y="208.833399" style="stroke: #000000; stroke-width: 0.8"/>
      </g>
     </g>
     <g id="text_11">
      <!-- 50 -->
      <g transform="translate(27.689063 212.688086) scale(0.1 -0.1)">
       <use xlink:href="#HiraginoSans-W4-35"/>
       <use xlink:href="#HiraginoSans-W4-30" transform="translate(67.299988 0)"/>
      </g>
     </g>
    </g>
    <g id="ytick_4">
     <g id="line2d_21">
      <path d="M 48.148438 179.748688 
L 525.602983 179.748688 
" clip-path="url(#pd715a0ee8c)" style="fill: none; stroke: #b0b0b0; stroke-opacity: 0.3; stroke-width: 0.8; stroke-linecap: square"/>
     </g>
     <g id="line2d_22">
      <g>
       <use xlink:href="#m4921a239d5" x="48.148438" y="179.748688" style="stroke: #000000; stroke-width: 0.8"/>
      </g>
     </g>
     <g id="text_12">
      <!-- 75 -->
      <g transform="translate(27.689063 183.603376) scale(0.1 -0.1)">
       <defs>
        <path id="HiraginoSans-W4-37" d="M 3898 4966 
C 3661 4941 3526 4934 3117 4934 
L 1165 4934 
C 838 4934 646 4947 390 4979 
L 390 4346 
C 634 4378 819 4390 1146 4390 
L 3200 4390 
C 2643 3635 2368 3187 2054 2541 
C 1664 1741 1491 1171 1280 0 
L 2003 0 
C 2099 685 2163 992 2317 1491 
C 2554 2291 2829 2861 3373 3718 
C 3642 4141 3763 4301 3898 4422 
L 3898 4966 
z
" transform="scale(0.015625)"/>
       </defs>
       <use xlink:href="#HiraginoSans-W4-37"/>
       <use xlink:href="#HiraginoSans-W4-35" transform="translate(67.299988 0)"/>
      </g>
     </g>
    </g>
    <g id="ytick_5">
     <g id="line2d_23">
      <path d="M 48.148438 150.663977 
L 525.602983 150.663977 
" clip-path="url(#pd715a0ee8c)" style="fill: none; stroke: #b0b0b0; stroke-opacity: 0.3; stroke-width: 0.8; stroke-linecap: square"/>
     </g>
     <g id="line2d_24">
      <g>
       <use xlink:href="#m4921a239d5" x="48.148438" y="150.663977" style="stroke: #000000; stroke-width: 0.8"/>
      </g>
     </g>
     <g id="text_13">
      <!-- 100 -->
      <g transform="translate(20.959375 154.518665) scale(0.1 -0.1)">
       <use xlink:href="#HiraginoSans-W4-31"/>
       <use xlink:href="#HiraginoSans-W4-30" transform="translate(67.299988 0)"/>
       <use xlink:href="#HiraginoSans-W4-30" transform="translate(134.599976 0)"/>
      </g>
     </g>
    </g>
    <g id="ytick_6">
     <g id="line2d_25">
      <path d="M 48.148438 121.579267 
L 525.602983 121.579267 
" clip-path="url(#pd715a0ee8c)" style="fill: none; stroke: #b0b0b0; stroke-opacity: 0.3; stroke-width: 0.8; stroke-linecap: square"/>
     </g>
     <g id="line2d_26">
      <g>
       <use xlink:href="#m4921a239d5" x="48.148438" y="121.579267" style="stroke: #000000; stroke-width: 0.8"/>
      </g>
     </g>
     <g id="text_14">
      <!-- 125 -->
      <g transform="translate(20.959375 125.433954) scale(0.1 -0.1)">
       <use xlink:href="#HiraginoSans-W4-31"/>
       <use xlink:href="#HiraginoSans-W4-32" transform="translate(67.299988 0)"/>
       <use xlink:href="#HiraginoSans-W4-35" transform="translate(134.599976 0)"/>
      </g>
     </g>
    </g>
    <g id="ytick_7">
     <g id="line2d_27">
      <path d="M 48.148438 92.494556 
L 525.602983 92.494556 
" clip-path="url(#pd715a0ee8c)" style="fill: none; stroke: #b0b0b0; stroke-opacity: 0.3; stroke-width: 0.8; stroke-linecap: square"/>
     </g>
     <g id="line2d_28">
      <g>
       <use xlink:href="#m4921a239d5" x="48.148438" y="92.494556" style="stroke: #000000; stroke-width: 0.8"/>
      </g>
     </g>
     <g id="text_15">
      <!-- 150 -->
      <g transform="translate(20.959375 96.349243) scale(0.1 -0.1)">
       <use xlink:href="#HiraginoSans-W4-31"/>
       <use xlink:href="#HiraginoSans-W4-35" transform="translate(67.299988 0)"/>
       <use xlink:href="#HiraginoSans-W4-30" transform="translate(134.599976 0)"/>
      </g>
     </g>
    </g>
    <g id="ytick_8">
     <g id="line2d_29">
      <path d="M 48.148438 63.409845 
L 525.602983 63.409845 
" clip-path="url(#pd715a0ee8c)" style="fill: none; stroke: #b0b0b0; stroke-opacity: 0.3; stroke-width: 0.8; stroke-linecap: square"/>
     </g>
     <g id="line2d_30">
      <g>
       <use xlink:href="#m4921a239d5" x="48.148438" y="63.409845" style="stroke: #000000; stroke-width: 0.8"/>
      </g>
     </g>
     <g id="text_16">
      <!-- 175 -->
      <g transform="translate(20.959375 67.264533) scale(0.1 -0.1)">
       <use xlink:href="#HiraginoSans-W4-31"/>
       <use xlink:href="#HiraginoSans-W4-37" transform="translate(67.299988 0)"/>
       <use xlink:href="#HiraginoSans-W4-35" transform="translate(134.599976 0)"/>
      </g>
     </g>
    </g>
    <g id="ytick_9">
     <g id="line2d_31">
      <path d="M 48.148438 34.325134 
L 525.602983 34.325134 
" clip-path="url(#pd715a0ee8c)" style="fill: none; stroke: #b0b0b0; stroke-opacity: 0.3; stroke-width: 0.8; stroke-linecap: square"/>
     </g>
     <g id="line2d_32">
      <g>
       <use xlink:href="#m4921a239d5" x="48.148438" y="34.325134" style="stroke: #000000; stroke-width: 0.8"/>
      </g>
     </g>
     <g id="text_17">
      <!-- 200 -->
      <g transform="translate(20.959375 38.179822) scale(0.1 -0.1)">
       <use xlink:href="#HiraginoSans-W4-32"/>
       <use xlink:href="#HiraginoSans-W4-30" transform="translate(67.299988 0)"/>
       <use xlink:href="#HiraginoSans-W4-30" transform="translate(134.599976 0)"/>
      </g>
     </g>
    </g>
    <g id="text_18">
     <!-- 期待コスト -->
     <g transform="translate(14.909375 175.663977) rotate(-90) scale(0.1 -0.1)">
      <defs>
       <path id="HiraginoSans-W4-671f" d="M 5363 1568 
L 5363 166 
C 5363 64 5312 26 5165 26 
C 4960 26 4762 45 4486 102 
C 4563 -122 4582 -198 4608 -422 
C 4934 -448 4992 -448 5107 -448 
C 5677 -448 5830 -333 5830 96 
L 5830 4384 
C 5830 4685 5837 4877 5856 5030 
C 5664 5011 5542 5005 5229 5005 
L 4333 5005 
C 4032 5005 3878 5011 3693 5030 
C 3712 4845 3718 4691 3718 4262 
C 3718 2803 3680 1734 3603 1229 
C 3514 627 3354 275 2989 -134 
C 3168 -256 3226 -307 3373 -493 
C 3840 102 4038 659 4109 1568 
L 5363 1568 
z
M 5363 3091 
L 5363 2003 
L 4141 2003 
C 4154 2323 4166 2739 4173 3091 
L 5363 3091 
z
M 5363 3526 
L 4179 3526 
C 4179 3571 4179 3629 4179 3706 
L 4179 4563 
L 5363 4563 
L 5363 3526 
z
M 928 4557 
L 896 4557 
C 640 4557 486 4570 371 4595 
L 371 4115 
C 486 4134 621 4141 928 4141 
L 928 1485 
L 781 1485 
C 531 1485 403 1491 275 1517 
L 275 1037 
C 410 1062 538 1069 787 1069 
L 2835 1069 
C 3085 1069 3258 1062 3405 1050 
L 3405 1517 
C 3290 1498 3136 1485 2931 1485 
L 2931 4141 
C 3162 4141 3315 4134 3437 4115 
L 3437 4595 
C 3322 4570 3155 4557 2931 4557 
L 2931 4672 
C 2931 4928 2944 5101 2970 5267 
L 2451 5267 
C 2477 5114 2483 4954 2483 4678 
L 2483 4557 
L 1376 4557 
L 1376 4672 
C 1376 4922 1382 5107 1408 5267 
L 896 5267 
C 915 5094 928 4922 928 4678 
L 928 4557 
z
M 1376 1485 
L 1376 2150 
L 2483 2150 
L 2483 1485 
L 1376 1485 
z
M 1376 2547 
L 1376 3149 
L 2483 3149 
L 2483 2547 
L 1376 2547 
z
M 1376 3546 
L 1376 4141 
L 2483 4141 
L 2483 3546 
L 1376 3546 
z
M 1267 896 
C 1024 461 794 224 314 -102 
C 486 -230 563 -307 666 -467 
C 1152 -77 1338 134 1664 659 
L 1267 896 
z
M 2106 653 
C 2317 320 2458 147 2733 -102 
C 2861 51 2925 109 3078 230 
C 2771 467 2669 582 2458 890 
L 2106 653 
z
" transform="scale(0.015625)"/>
       <path id="HiraginoSans-W4-5f85" d="M 3712 4192 
L 3712 3398 
L 2694 3398 
C 2419 3398 2246 3411 2074 3437 
L 2074 2938 
C 2253 2963 2419 2970 2694 2970 
L 4640 2970 
L 4640 2272 
L 2618 2272 
C 2349 2272 2163 2285 1997 2310 
L 1997 1798 
C 2182 1824 2368 1837 2637 1837 
L 4640 1837 
L 4640 205 
C 4640 96 4595 58 4461 58 
C 4397 58 4346 58 4301 51 
C 4288 51 4275 51 4275 51 
C 4160 51 3814 90 3590 128 
C 3661 -51 3693 -173 3718 -384 
C 3942 -403 4160 -410 4301 -410 
C 4576 -410 4806 -378 4928 -326 
C 5062 -262 5133 -115 5133 122 
L 5133 1837 
L 5370 1837 
C 5632 1837 5850 1824 6010 1798 
L 6010 2310 
C 5824 2285 5645 2272 5363 2272 
L 5133 2272 
L 5133 2970 
L 5363 2970 
C 5645 2970 5830 2957 6010 2938 
L 6010 3437 
C 5830 3411 5632 3398 5357 3398 
L 4192 3398 
L 4192 4192 
L 5120 4192 
C 5382 4192 5562 4186 5734 4160 
L 5734 4653 
C 5562 4627 5382 4614 5114 4614 
L 4192 4614 
L 4192 4845 
C 4192 5050 4198 5190 4224 5357 
L 3674 5357 
C 3699 5184 3712 5030 3712 4845 
L 3712 4614 
L 2899 4614 
C 2630 4614 2445 4627 2278 4653 
L 2278 4160 
C 2458 4186 2624 4192 2886 4192 
L 3712 4192 
z
M 1638 5402 
C 1395 4947 909 4480 262 4096 
C 384 3974 474 3853 550 3693 
C 1037 4013 1446 4384 1824 4838 
C 2003 5050 2003 5050 2054 5107 
L 1638 5402 
z
M 3814 614 
C 3443 1094 3245 1306 2848 1677 
L 2470 1402 
C 2867 1043 3085 787 3411 294 
L 3814 614 
z
M 1024 262 
C 1024 -64 1011 -294 986 -486 
L 1530 -486 
C 1504 -320 1498 -77 1498 262 
L 1498 2893 
C 1715 3168 1779 3258 1901 3450 
C 1984 3590 2029 3648 2074 3712 
L 1645 3981 
C 1440 3443 832 2720 198 2266 
C 326 2093 346 2061 454 1811 
C 736 2042 845 2157 1043 2419 
C 1024 2112 1024 1946 1024 1690 
L 1024 262 
z
" transform="scale(0.015625)"/>
       <path id="HiraginoSans-W4-30b3" d="M 4736 416 
L 4736 32 
L 5350 32 
C 5325 192 5318 378 5318 666 
L 5318 3987 
C 5318 4230 5318 4339 5331 4493 
C 5171 4486 5075 4480 4998 4480 
L 1894 4480 
C 1440 4480 1338 4486 1101 4525 
L 1101 3917 
C 1331 3942 1466 3949 1888 3949 
L 4742 3949 
L 4742 947 
L 1760 947 
C 1338 947 1229 954 1005 992 
L 1005 390 
C 1197 410 1325 416 1754 416 
L 4736 416 
z
" transform="scale(0.015625)"/>
       <path id="HiraginoSans-W4-30b9" d="M 5830 378 
C 5094 1139 4512 1658 3706 2259 
C 4122 2810 4410 3302 4736 4038 
C 4800 4192 4851 4275 4922 4358 
L 4608 4678 
C 4486 4634 4416 4627 4154 4621 
L 1939 4595 
C 1882 4595 1824 4595 1798 4595 
C 1517 4595 1389 4602 1190 4634 
L 1210 4026 
C 1440 4058 1600 4070 1946 4077 
C 4045 4109 4045 4109 4122 4115 
C 4115 4090 4109 4083 4102 4064 
C 4083 4032 4083 4026 4064 3981 
C 3763 3245 3245 2483 2643 1882 
C 1997 1229 1350 794 525 448 
C 717 256 774 173 896 -58 
C 1370 179 1702 384 2144 704 
C 2605 1043 2938 1350 3360 1830 
C 4109 1248 4883 499 5376 -122 
L 5830 378 
z
" transform="scale(0.015625)"/>
       <path id="HiraginoSans-W4-30c8" d="M 2483 -224 
C 2458 -26 2451 179 2451 518 
L 2451 2189 
C 2451 2445 2445 2554 2426 2714 
C 2515 2656 2541 2650 2637 2605 
C 3546 2221 4429 1747 4992 1350 
L 5312 1907 
C 4224 2534 3354 2938 2451 3258 
L 2451 4397 
C 2451 4755 2458 4934 2483 5120 
L 1837 5120 
C 1869 4954 1875 4800 1875 4416 
L 1875 518 
C 1875 154 1869 -13 1837 -224 
L 2483 -224 
z
" transform="scale(0.015625)"/>
      </defs>
      <use xlink:href="#HiraginoSans-W4-671f"/>
      <use xlink:href="#HiraginoSans-W4-5f85" transform="translate(99.999985 0)"/>
      <use xlink:href="#HiraginoSans-W4-30b3" transform="translate(199.999969 0)"/>
      <use xlink:href="#HiraginoSans-W4-30b9" transform="translate(299.999954 0)"/>
      <use xlink:href="#HiraginoSans-W4-30c8" transform="translate(399.999939 0)"/>
     </g>
    </g>
   </g>
   <g id="line2d_33">
    <path d="M 69.850917 34.325134 
L 77.085077 39.560382 
L 84.319236 44.79563 
L 91.553396 50.030878 
L 98.787556 55.266126 
L 106.021716 60.501374 
L 113.255876 65.736622 
L 120.490035 70.97187 
L 127.724195 76.207118 
L 134.958355 81.442366 
L 142.192515 86.677614 
L 149.426674 91.912862 
L 156.660834 97.14811 
L 163.894994 102.383357 
L 171.129154 107.618605 
L 178.363314 112.853853 
L 185.597473 118.089101 
L 192.831633 123.324349 
L 200.065793 128.559597 
L 207.299953 133.794845 
L 214.534112 139.030093 
L 221.768272 144.265341 
L 229.002432 149.500589 
L 236.236592 154.735837 
L 243.470752 159.971085 
L 250.704911 165.206333 
L 257.939071 170.441581 
L 265.173231 175.676829 
L 272.407391 180.912076 
L 279.64155 186.147324 
L 286.87571 191.382572 
L 294.10987 196.61782 
L 301.34403 201.853068 
L 308.57819 207.088316 
L 315.812349 212.323564 
L 323.046509 217.558812 
L 330.280669 222.79406 
L 337.514829 228.029308 
L 344.748988 233.264556 
L 351.983148 238.499804 
L 359.217308 243.735052 
L 366.451468 242.571663 
L 373.685628 241.408275 
L 380.919787 240.244886 
L 388.153947 239.081498 
L 395.388107 237.91811 
L 402.622267 236.754721 
L 409.856426 235.591333 
L 417.090586 234.427944 
L 424.324746 233.264556 
L 431.558906 232.101167 
L 438.793066 230.937779 
L 446.027225 229.77439 
L 453.261385 228.611002 
L 460.495545 227.447614 
L 467.729705 226.284225 
L 474.963864 225.120837 
L 482.198024 223.957448 
L 489.432184 222.79406 
L 496.666344 221.630671 
L 503.900504 220.467283 
" clip-path="url(#pd715a0ee8c)" style="fill: none; stroke: #4285f4; stroke-width: 2.5; stroke-linecap: square"/>
   </g>
   <g id="line2d_34">
    <path d="M 48.148438 267.00282 
L 525.602983 267.00282 
" clip-path="url(#pd715a0ee8c)" style="fill: none; stroke-dasharray: 1,1.65; stroke-dashoffset: 0; stroke: #808080"/>
   </g>
   <g id="patch_3">
    <path d="M 48.148438 278.636705 
L 48.148438 22.69125 
" style="fill: none; stroke: #000000; stroke-width: 0.8; stroke-linejoin: miter; stroke-linecap: square"/>
   </g>
   <g id="patch_4">
    <path d="M 525.602983 278.636705 
L 525.602983 22.69125 
" style="fill: none; stroke: #000000; stroke-width: 0.8; stroke-linejoin: miter; stroke-linecap: square"/>
   </g>
   <g id="patch_5">
    <path d="M 48.148438 278.636705 
L 525.602983 278.636705 
" style="fill: none; stroke: #000000; stroke-width: 0.8; stroke-linejoin: miter; stroke-linecap: square"/>
   </g>
   <g id="patch_6">
    <path d="M 48.148438 22.69125 
L 525.602983 22.69125 
" style="fill: none; stroke: #000000; stroke-width: 0.8; stroke-linejoin: miter; stroke-linecap: square"/>
   </g>
   <g id="patch_7">
    <path d="M 241.561488 123.152185 
Q 228.910551 130.584294 217.223607 137.450082 
" style="fill: none; stroke: #ea4335; stroke-linecap: round"/>
    <path d="M 221.685555 137.148391 
L 217.223607 137.450082 
L 219.659423 133.699509 
" style="fill: none; stroke: #ea4335; stroke-linecap: round"/>
   </g>
   <g id="text_19">
    <!-- 平均で計画 q=100 -->
    <g style="fill: #ea4335" transform="translate(221.768272 106.787851) scale(0.1 -0.1)">
     <defs>
      <path id="HiraginoSans-W4-5e73" d="M 2918 4653 
L 2918 2342 
L 1056 2342 
C 717 2342 525 2355 333 2387 
L 333 1830 
C 525 1862 749 1875 1069 1875 
L 2918 1875 
L 2918 198 
C 2918 -58 2906 -294 2874 -531 
L 3475 -531 
C 3443 -288 3430 -38 3430 198 
L 3430 1875 
L 5350 1875 
C 5683 1875 5907 1862 6080 1830 
L 6080 2387 
C 5901 2355 5690 2342 5370 2342 
L 3430 2342 
L 3430 4653 
L 5114 4653 
C 5408 4653 5606 4640 5818 4614 
L 5818 5152 
C 5626 5126 5421 5114 5107 5114 
L 1331 5114 
C 1011 5114 806 5126 614 5152 
L 614 4614 
C 826 4640 1030 4653 1318 4653 
L 2918 4653 
z
M 992 4179 
C 1331 3654 1523 3277 1766 2598 
L 2246 2842 
C 1984 3462 1786 3840 1427 4390 
L 992 4179 
z
M 4941 4384 
C 4685 3674 4486 3309 4058 2765 
L 4506 2534 
C 4928 3117 5133 3482 5408 4166 
L 4941 4384 
z
" transform="scale(0.015625)"/>
      <path id="HiraginoSans-W4-5747" d="M 1139 3603 
L 883 3603 
C 621 3603 493 3610 333 3642 
L 333 3123 
C 486 3155 621 3162 883 3162 
L 1139 3162 
L 1139 1133 
C 768 992 435 883 282 864 
L 416 352 
C 518 397 704 474 909 550 
C 1542 800 1824 928 2381 1222 
L 2362 1709 
C 2022 1517 1901 1459 1619 1331 
L 1619 3162 
L 1722 3162 
C 1920 3162 1997 3162 2144 3149 
L 2067 3072 
C 2227 2976 2266 2938 2438 2720 
C 2816 3123 3059 3462 3290 3904 
L 5414 3904 
C 5414 3744 5421 3616 5421 3533 
C 5421 2406 5344 1286 5222 646 
C 5133 192 5056 96 4755 96 
C 4570 96 4192 141 3872 192 
C 3962 -26 3994 -141 4006 -333 
C 4365 -365 4563 -378 4730 -378 
C 5344 -378 5504 -256 5645 320 
C 5811 992 5901 2266 5901 3872 
C 5901 4141 5907 4256 5926 4390 
C 5811 4378 5811 4378 5350 4365 
L 3501 4365 
C 3590 4582 3674 4806 3738 5005 
C 3776 5126 3789 5158 3814 5222 
L 3283 5350 
C 3232 5043 3155 4787 3008 4416 
C 2803 3936 2586 3597 2221 3219 
L 2221 3635 
C 2099 3610 1984 3603 1734 3603 
L 1619 3603 
L 1619 4627 
C 1619 4915 1626 5050 1658 5254 
L 1101 5254 
C 1126 5050 1139 4890 1139 4614 
L 1139 3603 
z
M 4909 2099 
C 4275 1696 3699 1414 2989 1158 
C 2848 1107 2739 1075 2618 1056 
L 2810 525 
C 2867 563 2918 582 2989 614 
C 3955 1037 4358 1235 5005 1626 
L 4909 2099 
z
M 2957 2502 
C 3110 2534 3251 2541 3507 2541 
L 4301 2541 
C 4525 2541 4685 2534 4813 2515 
L 4813 3021 
C 4678 2995 4538 2982 4294 2982 
L 3507 2982 
C 3245 2982 3123 2989 2957 3021 
L 2957 2502 
z
" transform="scale(0.015625)"/>
      <path id="HiraginoSans-W4-3067" d="M 576 3706 
C 915 3776 1440 3827 2682 3910 
C 3373 3955 3680 3987 4090 4051 
C 3008 3565 2374 2733 2374 1798 
C 2374 1222 2643 736 3136 416 
C 3514 179 3891 51 4550 -58 
C 4653 -70 4678 -77 4755 -96 
L 4845 525 
C 4538 525 4205 582 3885 691 
C 3245 902 2918 1286 2918 1850 
C 2918 2451 3283 3040 3936 3482 
C 4442 3821 5050 4026 5568 4026 
L 5645 4026 
L 5600 4595 
C 5498 4570 5242 4544 4851 4531 
C 3795 4486 2042 4384 1146 4320 
C 947 4307 864 4301 774 4301 
L 544 4307 
L 576 3706 
z
M 4506 3104 
C 4768 2810 4973 2490 5171 2093 
L 5549 2304 
C 5325 2720 5178 2938 4877 3296 
L 4506 3104 
z
M 5248 3450 
C 5530 3117 5722 2829 5907 2458 
L 6278 2669 
C 6048 3091 5907 3290 5606 3642 
L 5248 3450 
z
" transform="scale(0.015625)"/>
      <path id="HiraginoSans-W4-8a08" d="M 4314 3322 
L 3795 3322 
C 3469 3322 3245 3334 3046 3360 
L 3046 2822 
C 3264 2848 3520 2861 3795 2861 
L 4314 2861 
L 4314 448 
C 4314 -13 4301 -243 4269 -486 
L 4864 -486 
C 4826 -224 4813 26 4813 448 
L 4813 2861 
L 5376 2861 
C 5690 2861 5907 2848 6144 2822 
L 6144 3360 
C 5933 3334 5722 3322 5376 3322 
L 4813 3322 
L 4813 4576 
C 4813 4870 4826 5101 4858 5306 
L 4269 5306 
C 4301 5062 4314 4896 4314 4576 
L 4314 3322 
z
M 672 4634 
C 819 4653 973 4659 1197 4659 
L 2259 4659 
C 2490 4659 2611 4653 2778 4634 
L 2778 5101 
C 2611 5075 2496 5069 2259 5069 
L 1197 5069 
C 954 5069 826 5075 672 5101 
L 672 4634 
z
M 378 3738 
C 570 3763 717 3770 922 3770 
L 2502 3770 
C 2746 3770 2906 3763 3053 3738 
L 3053 4218 
C 2906 4192 2752 4186 2502 4186 
L 928 4186 
C 698 4186 538 4198 378 4224 
L 378 3738 
z
M 672 2861 
C 813 2880 915 2886 1126 2886 
L 2330 2886 
C 2534 2886 2611 2880 2771 2861 
L 2771 3309 
C 2618 3296 2547 3290 2330 3290 
L 1126 3290 
C 902 3290 819 3296 672 3309 
L 672 2861 
z
M 672 1978 
C 813 1990 909 1997 1120 1997 
L 2323 1997 
C 2541 1997 2630 1990 2771 1978 
L 2771 2419 
C 2630 2406 2554 2400 2330 2400 
L 1126 2400 
C 890 2400 806 2406 672 2426 
L 672 1978 
z
M 1190 -166 
L 2317 -166 
L 2317 -403 
L 2816 -403 
C 2790 -243 2778 -83 2778 141 
L 2778 1018 
C 2778 1261 2784 1370 2803 1523 
C 2682 1510 2554 1504 2374 1504 
L 1146 1504 
C 934 1504 832 1510 698 1523 
C 723 1370 730 1222 730 1011 
L 730 128 
C 730 -128 717 -314 698 -493 
L 1190 -493 
L 1190 -166 
z
M 1184 1094 
L 2317 1094 
L 2317 237 
L 1184 237 
L 1184 1094 
z
" transform="scale(0.015625)"/>
      <path id="HiraginoSans-W4-753b" d="M 3405 3974 
L 3405 4691 
L 5350 4691 
C 5606 4691 5850 4678 6054 4653 
L 6054 5171 
C 5830 5146 5626 5133 5350 5133 
L 1062 5133 
C 781 5133 557 5146 358 5171 
L 358 4653 
C 589 4678 794 4691 1062 4691 
L 2944 4691 
L 2944 3974 
L 2125 3974 
C 1888 3974 1754 3981 1594 4000 
C 1613 3846 1619 3738 1619 3539 
L 1619 1254 
C 1619 1043 1613 960 1594 794 
C 1773 813 1888 819 2150 819 
L 4243 819 
C 4499 819 4614 813 4794 794 
C 4774 947 4768 1043 4768 1254 
L 4768 3539 
C 4768 3738 4774 3846 4794 4000 
C 4634 3981 4499 3974 4262 3974 
L 3405 3974 
z
M 2944 3558 
L 2944 2669 
L 2061 2669 
L 2061 3558 
L 2944 3558 
z
M 3405 3558 
L 4333 3558 
L 4333 2669 
L 3405 2669 
L 3405 3558 
z
M 2944 2266 
L 2944 1229 
L 2061 1229 
L 2061 2266 
L 2944 2266 
z
M 3405 2266 
L 4333 2266 
L 4333 1229 
L 3405 1229 
L 3405 2266 
z
M 5363 3840 
C 5395 3661 5402 3514 5402 3245 
L 5402 275 
L 1011 275 
L 1011 3238 
C 1011 3520 1024 3686 1050 3840 
L 493 3840 
C 518 3622 531 3437 531 3168 
L 531 288 
C 531 -70 518 -301 493 -512 
L 1024 -512 
L 1024 -166 
L 5389 -166 
L 5389 -512 
L 5920 -512 
C 5894 -294 5882 -70 5882 282 
L 5882 3162 
C 5882 3405 5894 3648 5920 3840 
L 5363 3840 
z
" transform="scale(0.015625)"/>
      <path id="HiraginoSans-W4-3d" d="M 333 2720 
L 333 2195 
L 3923 2195 
L 3923 2720 
L 333 2720 
z
M 333 1376 
L 333 851 
L 3923 851 
L 3923 1376 
L 333 1376 
z
" transform="scale(0.015625)"/>
     </defs>
     <use xlink:href="#HiraginoSans-W4-5e73"/>
     <use xlink:href="#HiraginoSans-W4-5747" transform="translate(99.999985 0)"/>
     <use xlink:href="#HiraginoSans-W4-3067" transform="translate(199.999969 0)"/>
     <use xlink:href="#HiraginoSans-W4-8a08" transform="translate(299.999954 0)"/>
     <use xlink:href="#HiraginoSans-W4-753b" transform="translate(399.999939 0)"/>
     <use xlink:href="#HiraginoSans-W4-20" transform="translate(499.999924 0)"/>
     <use xlink:href="#HiraginoSans-W4-71" transform="translate(533.299911 0)"/>
     <use xlink:href="#HiraginoSans-W4-3d" transform="translate(599.699905 0)"/>
     <use xlink:href="#HiraginoSans-W4-31" transform="translate(666.099899 0)"/>
     <use xlink:href="#HiraginoSans-W4-30" transform="translate(733.399887 0)"/>
     <use xlink:href="#HiraginoSans-W4-30" transform="translate(800.699875 0)"/>
    </g>
    <!-- 期待コスト 110 -->
    <g style="fill: #ea4335" transform="translate(221.768272 118.089101) scale(0.1 -0.1)">
     <use xlink:href="#HiraginoSans-W4-671f"/>
     <use xlink:href="#HiraginoSans-W4-5f85" transform="translate(99.999985 0)"/>
     <use xlink:href="#HiraginoSans-W4-30b3" transform="translate(199.999969 0)"/>
     <use xlink:href="#HiraginoSans-W4-30b9" transform="translate(299.999954 0)"/>
     <use xlink:href="#HiraginoSans-W4-30c8" transform="translate(399.999939 0)"/>
     <use xlink:href="#HiraginoSans-W4-20" transform="translate(499.999924 0)"/>
     <use xlink:href="#HiraginoSans-W4-31" transform="translate(533.299911 0)"/>
     <use xlink:href="#HiraginoSans-W4-31" transform="translate(600.599899 0)"/>
     <use xlink:href="#HiraginoSans-W4-30" transform="translate(667.899887 0)"/>
    </g>
   </g>
   <g id="patch_8">
    <path d="M 241.842058 210.564272 
Q 299.567914 226.877861 356.217874 242.887398 
" style="fill: none; stroke: #34a853; stroke-linecap: round"/>
    <path d="M 352.912539 239.874964 
L 356.217874 242.887398 
L 351.824725 243.724206 
" style="fill: none; stroke: #34a853; stroke-linecap: round"/>
   </g>
   <g id="text_20">
    <!-- 最適 q*=120 -->
    <g style="fill: #34a853" transform="translate(171.129154 197.532149) scale(0.1 -0.1)">
     <defs>
      <path id="HiraginoSans-W4-6700" d="M 992 2509 
L 992 390 
C 723 365 531 352 416 352 
C 390 352 352 352 307 358 
L 416 -134 
C 646 -83 717 -70 1344 19 
C 1837 83 1837 83 2669 237 
L 2669 102 
C 2669 -192 2656 -358 2630 -506 
L 3149 -506 
C 3117 -339 3110 -192 3110 109 
L 3110 2509 
L 5491 2509 
C 5760 2509 5901 2502 6106 2470 
L 6106 2944 
C 5933 2912 5792 2906 5491 2906 
L 915 2906 
C 614 2906 474 2912 307 2944 
L 307 2470 
C 506 2502 646 2509 909 2509 
L 992 2509 
z
M 1440 2509 
L 2669 2509 
L 2669 2106 
L 1440 2106 
L 1440 2509 
z
M 1440 1754 
L 2669 1754 
L 2669 1331 
L 1440 1331 
L 1440 1754 
z
M 1440 979 
L 2669 979 
L 2669 614 
C 2086 512 2003 506 1440 442 
L 1440 979 
z
M 5504 2138 
C 5402 2118 5254 2112 5018 2112 
L 3859 2112 
C 3597 2112 3456 2118 3315 2138 
L 3315 1696 
C 3494 1715 3590 1722 3770 1722 
L 5165 1722 
C 4947 1325 4813 1139 4550 864 
C 4301 1126 4166 1331 4000 1702 
L 3616 1530 
C 3898 986 3962 890 4237 589 
C 3917 326 3661 186 3194 0 
C 3328 -128 3392 -218 3482 -397 
C 3949 -173 4198 -19 4550 282 
C 4896 -13 5242 -211 5811 -448 
C 5888 -288 5978 -141 6080 -13 
C 5562 147 5203 326 4870 576 
C 5165 883 5370 1178 5645 1677 
C 5690 1773 5709 1798 5754 1862 
L 5504 2138 
z
M 5370 4621 
C 5370 4858 5376 4998 5395 5139 
C 5178 5120 5005 5114 4704 5114 
L 1741 5114 
C 1446 5114 1274 5120 1050 5139 
C 1069 4992 1075 4845 1075 4621 
L 1075 3744 
C 1075 3520 1069 3373 1050 3219 
C 1286 3238 1440 3245 1728 3245 
L 4749 3245 
C 4992 3245 5197 3238 5395 3219 
C 5376 3373 5370 3514 5370 3744 
L 5370 4621 
z
M 1536 4742 
L 4909 4742 
L 4909 4358 
L 1536 4358 
L 1536 4742 
z
M 1536 4000 
L 4909 4000 
L 4909 3603 
L 1536 3603 
L 1536 4000 
z
" transform="scale(0.015625)"/>
      <path id="HiraginoSans-W4-9069" d="M 3763 2669 
L 3763 2234 
L 3520 2234 
C 3277 2234 3168 2240 3046 2259 
C 3059 2106 3066 1997 3066 1811 
L 3066 1152 
C 3066 979 3059 845 3046 704 
L 3469 704 
L 3469 1011 
L 4435 1011 
C 4602 1011 4742 1005 4864 992 
C 4851 1088 4851 1152 4851 1395 
L 4851 1798 
C 4851 1990 4858 2118 4870 2259 
C 4736 2240 4608 2234 4384 2234 
L 4166 2234 
L 4166 2669 
L 4608 2669 
C 4838 2669 4966 2662 5158 2643 
L 5158 3046 
C 4998 3021 4838 3014 4608 3014 
L 4166 3014 
C 4166 3187 4173 3270 4192 3392 
L 3731 3392 
C 3757 3264 3763 3168 3763 3014 
L 3341 3014 
C 3110 3014 2963 3021 2803 3046 
L 2803 2643 
C 2995 2662 3117 2669 3341 2669 
L 3763 2669 
z
M 3462 1894 
L 4454 1894 
L 4454 1357 
L 3462 1357 
L 3462 1894 
z
M 4192 4845 
C 4198 5133 4205 5210 4230 5363 
L 3680 5363 
C 3712 5197 3718 5114 3718 4845 
L 2598 4845 
C 2291 4845 2099 4858 1926 4883 
L 1926 4416 
C 2099 4442 2278 4448 2592 4448 
L 2854 4448 
C 2938 4288 3021 4096 3085 3904 
L 2848 3904 
C 2477 3904 2336 3910 2144 3923 
C 2157 3725 2163 3590 2163 3258 
L 2163 1235 
C 2163 934 2150 672 2131 499 
L 2643 499 
C 2624 640 2611 909 2611 1235 
L 2611 3526 
L 5350 3526 
L 5350 1050 
C 5350 922 5312 902 5101 902 
C 4947 902 4717 915 4582 941 
C 4653 762 4666 685 4691 493 
C 4832 486 4998 480 5075 480 
C 5312 480 5491 499 5594 538 
C 5728 582 5798 730 5798 998 
L 5798 3238 
C 5798 3565 5805 3738 5824 3930 
C 5619 3910 5472 3904 5158 3904 
L 4832 3904 
C 4954 4147 5005 4256 5082 4448 
L 5376 4448 
C 5658 4448 5818 4442 6016 4416 
L 6016 4883 
C 5837 4858 5658 4845 5350 4845 
L 4192 4845 
z
M 3552 3904 
C 3482 4115 3411 4282 3328 4448 
L 4595 4448 
C 4525 4250 4442 4045 4358 3904 
L 3552 3904 
z
M 371 4909 
C 774 4531 1024 4250 1382 3738 
L 1766 4090 
C 1402 4570 1171 4813 723 5229 
L 371 4909 
z
M 294 2336 
C 442 2362 550 2368 749 2368 
L 1133 2368 
L 1133 870 
C 774 525 442 275 160 147 
L 403 -365 
C 570 -224 691 -128 774 -58 
C 928 58 1126 243 1357 467 
C 1549 192 1754 13 2010 -109 
C 2374 -282 2758 -326 3885 -326 
C 4710 -326 5357 -314 6042 -282 
C 6086 -32 6099 13 6202 250 
C 5542 166 4646 128 3347 128 
C 2605 128 2221 218 1901 461 
C 1766 570 1696 659 1606 858 
L 1606 2150 
C 1606 2477 1613 2630 1632 2835 
C 1491 2816 1331 2803 1146 2803 
L 794 2803 
C 557 2803 448 2810 294 2835 
L 294 2336 
z
" transform="scale(0.015625)"/>
      <path id="HiraginoSans-W4-2a" d="M 877 4934 
L 1043 4077 
L 378 4640 
L 109 4218 
L 941 3910 
L 128 3616 
L 384 3187 
L 1050 3757 
L 877 2886 
L 1408 2886 
L 1235 3757 
L 1901 3187 
L 2157 3616 
L 1344 3910 
L 2176 4218 
L 1907 4634 
L 1242 4077 
L 1408 4934 
L 877 4934 
z
" transform="scale(0.015625)"/>
     </defs>
     <use xlink:href="#HiraginoSans-W4-6700"/>
     <use xlink:href="#HiraginoSans-W4-9069" transform="translate(99.999985 0)"/>
     <use xlink:href="#HiraginoSans-W4-20" transform="translate(199.999969 0)"/>
     <use xlink:href="#HiraginoSans-W4-71" transform="translate(233.299957 0)"/>
     <use xlink:href="#HiraginoSans-W4-2a" transform="translate(299.699951 0)"/>
     <use xlink:href="#HiraginoSans-W4-3d" transform="translate(335.299942 0)"/>
     <use xlink:href="#HiraginoSans-W4-31" transform="translate(401.699936 0)"/>
     <use xlink:href="#HiraginoSans-W4-32" transform="translate(468.999924 0)"/>
     <use xlink:href="#HiraginoSans-W4-30" transform="translate(536.299911 0)"/>
    </g>
    <!-- 期待コスト 20 -->
    <g style="fill: #34a853" transform="translate(171.129154 208.833399) scale(0.1 -0.1)">
     <use xlink:href="#HiraginoSans-W4-671f"/>
     <use xlink:href="#HiraginoSans-W4-5f85" transform="translate(99.999985 0)"/>
     <use xlink:href="#HiraginoSans-W4-30b3" transform="translate(199.999969 0)"/>
     <use xlink:href="#HiraginoSans-W4-30b9" transform="translate(299.999954 0)"/>
     <use xlink:href="#HiraginoSans-W4-30c8" transform="translate(399.999939 0)"/>
     <use xlink:href="#HiraginoSans-W4-20" transform="translate(499.999924 0)"/>
     <use xlink:href="#HiraginoSans-W4-32" transform="translate(533.299911 0)"/>
     <use xlink:href="#HiraginoSans-W4-30" transform="translate(600.599899 0)"/>
    </g>
   </g>
   <g id="text_21">
    <!-- Cost(100, E[D])=0 は幻（実際は110） -->
    <g style="fill: #808080" transform="translate(84.319236 262.349267) scale(0.09 -0.09)">
     <defs>
      <path id="HiraginoSans-W4-43" d="M 4544 3654 
C 4390 4064 4269 4269 4026 4506 
C 3661 4858 3174 5030 2560 5030 
C 1946 5030 1453 4845 1075 4480 
C 589 4006 320 3296 320 2458 
C 320 1651 570 947 1018 493 
C 1389 109 1920 -90 2554 -90 
C 3277 -90 3878 173 4237 640 
C 4403 858 4493 1062 4608 1459 
L 3968 1594 
C 3910 1306 3853 1152 3718 966 
C 3475 634 3066 448 2573 448 
C 1581 448 947 1235 947 2477 
C 947 3718 1568 4493 2573 4493 
C 3014 4493 3386 4339 3629 4051 
C 3763 3891 3834 3763 3923 3488 
L 4544 3654 
z
" transform="scale(0.015625)"/>
      <path id="HiraginoSans-W4-6f" d="M 2054 -90 
C 3110 -90 3802 640 3802 1766 
C 3802 2893 3117 3610 2042 3610 
C 966 3610 282 2886 282 1760 
C 282 627 966 -90 2054 -90 
z
M 2054 3130 
C 2771 3130 3213 2605 3213 1754 
C 3213 909 2771 397 2042 397 
C 1318 397 870 922 870 1766 
C 870 2611 1325 3130 2054 3130 
z
" transform="scale(0.015625)"/>
      <path id="HiraginoSans-W4-73" d="M 262 973 
C 326 704 378 589 480 448 
C 730 109 1184 -70 1786 -70 
C 2707 -70 3270 339 3270 1011 
C 3270 1293 3136 1555 2912 1722 
C 2720 1862 2483 1946 1894 2074 
C 1510 2157 1357 2208 1210 2285 
C 1075 2355 998 2483 998 2624 
C 998 2944 1312 3162 1760 3162 
C 2042 3162 2259 3078 2400 2925 
C 2483 2835 2515 2758 2554 2598 
L 3155 2688 
C 3066 2982 2982 3136 2810 3283 
C 2573 3494 2208 3610 1754 3610 
C 1299 3610 941 3494 698 3258 
C 518 3091 416 2861 416 2618 
C 416 2310 557 2054 819 1888 
C 1043 1747 1261 1677 1760 1574 
C 2246 1466 2349 1440 2490 1350 
C 2618 1274 2682 1139 2682 973 
C 2682 621 2342 397 1818 397 
C 1504 397 1267 474 1107 614 
C 986 730 934 832 890 1069 
L 262 973 
z
" transform="scale(0.015625)"/>
      <path id="HiraginoSans-W4-74" d="M 851 4480 
C 877 4262 896 4006 896 3750 
L 896 3520 
L 646 3520 
C 378 3520 250 3526 70 3558 
L 70 2995 
C 275 3021 416 3034 640 3034 
L 896 3034 
L 896 787 
C 896 461 954 269 1094 134 
C 1235 6 1466 -64 1773 -64 
C 2042 -64 2246 -26 2515 83 
L 2374 602 
C 2176 486 2048 448 1875 448 
C 1741 448 1632 486 1568 544 
C 1504 608 1478 698 1478 883 
L 1478 3034 
L 1779 3034 
C 2074 3034 2221 3027 2426 2995 
L 2426 3558 
C 2214 3526 2074 3520 1773 3520 
L 1478 3520 
L 1478 3750 
C 1478 4026 1498 4275 1523 4480 
L 851 4480 
z
" transform="scale(0.015625)"/>
      <path id="HiraginoSans-W4-28" d="M 2195 -749 
C 1830 -198 1683 90 1542 538 
C 1402 986 1331 1472 1331 1978 
C 1331 2483 1402 2963 1542 3411 
C 1683 3859 1830 4147 2195 4698 
L 1715 5018 
C 1350 4461 1197 4173 1037 3712 
C 838 3155 742 2579 742 1978 
C 742 1376 838 794 1037 243 
C 1197 -218 1350 -512 1715 -1062 
L 2195 -749 
z
" transform="scale(0.015625)"/>
      <path id="HiraginoSans-W4-2c" d="M 1165 723 
L 435 723 
L 435 0 
L 858 0 
C 851 -403 800 -499 493 -614 
L 685 -864 
C 1062 -672 1165 -493 1165 0 
L 1165 723 
z
" transform="scale(0.015625)"/>
      <path id="HiraginoSans-W4-45" d="M 3872 582 
C 3629 550 3450 538 3130 538 
L 1133 538 
L 1133 2323 
L 2778 2323 
C 3130 2323 3302 2310 3533 2278 
L 3533 2899 
C 3283 2867 3078 2854 2778 2854 
L 1133 2854 
L 1133 4397 
L 3066 4397 
C 3405 4397 3597 4384 3814 4352 
L 3814 4979 
C 3603 4947 3366 4934 3066 4934 
L 1210 4934 
C 896 4934 698 4941 480 4954 
C 518 4659 531 4486 531 4192 
L 531 768 
C 531 429 518 224 480 -13 
C 717 0 870 0 1210 0 
L 3130 0 
C 3482 0 3654 -6 3872 -38 
L 3872 582 
z
" transform="scale(0.015625)"/>
      <path id="HiraginoSans-W4-44" d="M 531 768 
C 531 429 518 237 480 -13 
C 710 0 870 0 1210 0 
L 2317 0 
C 2989 0 3520 192 3910 570 
C 4371 1018 4614 1683 4614 2515 
C 4614 3309 4390 3942 3949 4365 
C 3565 4749 3021 4934 2310 4934 
L 1210 4934 
C 883 4934 698 4941 480 4954 
C 518 4672 531 4493 531 4192 
L 531 768 
z
M 1126 538 
L 1126 4397 
L 2310 4397 
C 2848 4397 3226 4262 3507 3974 
C 3834 3642 3994 3155 3994 2502 
C 3994 1856 3814 1325 3475 979 
C 3187 678 2803 538 2291 538 
L 1126 538 
z
" transform="scale(0.015625)"/>
      <path id="HiraginoSans-W4-29" d="M 653 -1062 
C 1018 -512 1171 -218 1331 243 
C 1530 794 1626 1370 1626 1978 
C 1626 2579 1530 3155 1331 3712 
C 1171 4173 1018 4461 653 5018 
L 173 4698 
C 538 4147 685 3859 826 3411 
C 966 2963 1037 2490 1037 1978 
C 1037 1466 966 986 826 538 
C 685 90 538 -198 173 -749 
L 653 -1062 
z
" transform="scale(0.015625)"/>
      <path id="HiraginoSans-W4-306f" d="M 2381 3270 
C 2394 3277 2400 3277 2406 3277 
C 2419 3277 2438 3277 2470 3270 
C 2483 3270 2522 3270 2586 3264 
C 2605 3264 2675 3258 2778 3251 
C 3008 3232 3245 3226 3501 3226 
C 3738 3226 3898 3232 4205 3245 
C 4237 2208 4250 1805 4269 1664 
C 4102 1734 3859 1779 3603 1779 
C 2874 1779 2355 1382 2355 826 
C 2355 243 2829 -122 3590 -122 
C 4141 -122 4557 77 4710 416 
C 4762 531 4787 672 4787 858 
C 4787 909 4787 934 4781 992 
C 4813 973 4813 966 4838 954 
C 4890 922 4902 915 4909 909 
C 5370 627 5376 621 5574 454 
C 5658 384 5702 339 5766 269 
L 5997 813 
C 5920 851 5901 864 5830 922 
C 5434 1210 5229 1331 4781 1536 
C 4717 2618 4717 2694 4710 3283 
C 5101 3328 5382 3373 5722 3450 
C 5773 3462 5786 3462 5824 3469 
L 5798 3981 
C 5613 3898 5184 3808 4710 3750 
C 4710 3910 4710 4026 4710 4109 
C 4710 4589 4723 4883 4749 5043 
L 4179 5043 
C 4186 4979 4192 4883 4192 4768 
C 4198 4326 4198 4326 4198 3712 
C 3987 3706 3840 3699 3590 3699 
C 2995 3699 2707 3725 2387 3795 
L 2381 3270 
z
M 4282 1190 
C 4282 1184 4282 1043 4282 1005 
C 4282 787 4243 646 4173 557 
C 4058 429 3827 346 3565 346 
C 3149 346 2867 538 2867 826 
C 2867 1126 3168 1318 3629 1318 
C 3866 1318 4026 1286 4282 1190 
z
M 1331 845 
C 1331 922 1331 934 1331 998 
C 1331 1101 1331 1101 1325 1158 
C 1318 1453 1312 1766 1312 1914 
C 1312 2963 1536 4352 1811 4973 
L 1203 5056 
C 1203 4966 1190 4883 1133 4627 
C 890 3501 813 2867 813 2003 
C 813 1331 864 762 992 58 
C 1024 -122 1024 -134 1024 -179 
L 1581 -134 
C 1568 -58 1568 -26 1568 6 
C 1568 397 1843 1267 2144 1862 
L 1741 2042 
C 1722 1984 1715 1965 1683 1888 
C 1510 1440 1466 1306 1350 838 
L 1331 845 
z
" transform="scale(0.015625)"/>
      <path id="HiraginoSans-W4-5e7b" d="M 422 -90 
C 531 -64 653 -45 794 -19 
C 2099 160 2381 205 2963 346 
C 3034 115 3059 38 3136 -262 
L 3622 -102 
C 3354 755 3200 1133 2874 1811 
L 2426 1664 
C 2624 1274 2682 1133 2816 768 
C 2413 678 1971 608 1312 525 
C 1990 1446 2560 2368 3046 3309 
C 3142 3494 3194 3578 3251 3674 
L 2733 3898 
C 2650 3597 2400 3098 1958 2336 
C 1702 2656 1613 2765 1286 3123 
C 1670 3699 1894 4090 2189 4698 
C 2259 4832 2317 4954 2368 5030 
L 1830 5216 
C 1786 5056 1734 4915 1658 4736 
C 1446 4250 1325 4026 960 3462 
L 666 3750 
L 371 3347 
C 986 2797 1222 2541 1709 1914 
C 1434 1472 1107 992 890 698 
C 774 550 774 550 717 467 
C 550 454 499 454 397 454 
C 378 454 346 454 301 454 
L 422 -90 
z
M 5382 4307 
C 5370 3578 5357 3155 5338 2694 
C 5299 1837 5203 979 5101 538 
C 5030 243 4954 179 4691 179 
C 4461 179 4186 205 3859 262 
C 3936 77 3962 -32 3981 -256 
C 4294 -275 4518 -288 4717 -288 
C 4915 -288 5062 -269 5158 -237 
C 5344 -166 5472 -19 5530 192 
C 5715 832 5837 2157 5869 3968 
C 5882 4646 5882 4646 5901 4794 
C 5766 4774 5517 4762 5267 4762 
L 3718 4762 
C 3418 4762 3206 4774 3040 4800 
L 3040 4269 
C 3213 4294 3398 4307 3718 4307 
L 5382 4307 
z
" transform="scale(0.015625)"/>
      <path id="HiraginoSans-W4-ff08" d="M 6170 -531 
C 5690 -26 5491 256 5280 698 
C 5024 1235 4902 1805 4902 2432 
C 4902 3059 5024 3629 5280 4166 
C 5491 4608 5690 4890 6170 5395 
L 5517 5395 
C 5139 4947 4966 4685 4774 4275 
C 4499 3686 4365 3085 4365 2432 
C 4365 1779 4499 1178 4774 589 
C 4966 179 5139 -83 5517 -531 
L 6170 -531 
z
" transform="scale(0.015625)"/>
      <path id="HiraginoSans-W4-5b9f" d="M 5376 1382 
C 5626 1382 5798 1370 6003 1344 
L 6003 1843 
C 5837 1811 5677 1805 5395 1805 
L 3245 1805 
C 3290 1997 3302 2099 3328 2355 
L 4614 2355 
C 4896 2355 5011 2349 5171 2323 
L 5171 2784 
C 5005 2758 4909 2752 4614 2752 
L 3360 2752 
C 3373 2893 3373 3008 3386 3258 
L 4666 3258 
C 4947 3258 5094 3251 5280 3226 
L 5280 3693 
C 5120 3667 4954 3661 4666 3661 
L 3392 3661 
C 3398 3942 3405 4045 3430 4147 
L 2880 4147 
C 2906 4013 2912 3923 2912 3661 
L 1734 3661 
C 1453 3661 1286 3667 1126 3693 
L 1126 3226 
C 1299 3251 1459 3258 1734 3258 
L 2912 3258 
C 2906 3059 2899 2995 2886 2752 
L 1747 2752 
C 1453 2752 1350 2758 1184 2784 
L 1184 2323 
C 1338 2349 1466 2355 1747 2355 
L 2861 2355 
C 2835 2118 2816 1978 2771 1805 
L 1043 1805 
C 762 1805 602 1811 435 1843 
L 435 1344 
C 634 1370 826 1382 1062 1382 
L 2624 1382 
C 2432 979 2150 691 1722 454 
C 1325 243 966 128 346 19 
C 493 -186 531 -250 608 -461 
C 1242 -314 1658 -147 2093 128 
C 2547 416 2861 774 3078 1280 
C 3686 384 4454 -109 5824 -467 
C 5901 -275 5978 -128 6093 26 
C 5357 160 4858 333 4397 602 
C 4038 813 3808 1024 3533 1382 
L 5376 1382 
z
M 2899 4736 
L 1171 4736 
C 877 4736 710 4742 506 4762 
C 525 4608 531 4486 531 4314 
L 531 3917 
C 531 3718 525 3603 506 3462 
L 1005 3462 
L 1005 4314 
L 5414 4314 
L 5414 3462 
L 5907 3462 
C 5888 3590 5882 3731 5882 3917 
L 5882 4320 
C 5882 4493 5888 4608 5907 4762 
C 5702 4742 5542 4736 5248 4736 
L 3398 4736 
L 3398 4954 
C 3398 5101 3411 5216 3437 5350 
L 2861 5350 
C 2886 5210 2899 5101 2899 4947 
L 2899 4736 
z
" transform="scale(0.015625)"/>
      <path id="HiraginoSans-W4-969b" d="M 3194 2419 
C 3309 2438 3437 2445 3603 2445 
L 4749 2445 
C 4960 2445 5062 2438 5171 2419 
L 5171 2867 
C 5453 2598 5670 2432 6042 2182 
C 6125 2374 6182 2477 6317 2637 
C 5805 2906 5530 3104 5165 3488 
C 5478 3814 5670 4064 5875 4390 
C 5978 4544 6042 4640 6086 4704 
L 5850 5024 
C 5773 5005 5638 4998 5382 4998 
L 4947 4998 
C 4806 4998 4698 5005 4563 5024 
L 4563 4570 
C 4678 4582 4762 4589 4845 4589 
L 5517 4589 
C 5280 4218 5146 4045 4896 3802 
C 4576 4218 4326 4710 4294 5011 
C 4173 4998 4058 4992 3750 4992 
L 3315 4992 
C 3360 5082 3379 5120 3386 5139 
C 3430 5235 3437 5242 3482 5325 
L 3002 5414 
C 2963 5190 2816 4877 2586 4538 
C 2387 4243 2227 4064 1882 3738 
C 1984 3661 2080 3558 2170 3430 
C 2566 3795 2848 4154 3110 4602 
L 3885 4602 
C 3782 4333 3738 4230 3610 4019 
C 3456 4154 3347 4243 3181 4358 
L 2918 4064 
C 3130 3930 3238 3840 3405 3693 
C 3296 3546 3251 3488 3149 3373 
C 2886 3616 2880 3629 2701 3757 
L 2419 3488 
C 2650 3315 2752 3232 2874 3098 
C 2618 2848 2464 2726 2150 2515 
C 2278 2381 2342 2298 2413 2150 
C 2733 2381 2893 2522 3194 2822 
L 3194 2419 
z
M 3622 2861 
C 3443 2861 3347 2867 3245 2874 
C 3693 3354 3955 3770 4154 4288 
C 4442 3693 4730 3296 5158 2880 
C 5062 2867 4960 2861 4755 2861 
L 3622 2861 
z
M 3923 1504 
L 3923 186 
C 3923 58 3891 26 3738 26 
C 3565 26 3405 38 3059 90 
C 3123 -70 3155 -211 3168 -390 
C 3366 -410 3629 -416 3795 -416 
C 4256 -416 4384 -307 4384 77 
L 4384 1504 
L 5414 1504 
C 5626 1504 5843 1491 6016 1472 
L 6016 1965 
C 5882 1946 5690 1933 5414 1933 
L 3002 1933 
C 2752 1933 2528 1946 2406 1965 
L 2406 1472 
C 2522 1491 2733 1504 2989 1504 
L 3923 1504 
z
M 512 243 
C 512 -51 499 -307 474 -480 
L 992 -480 
C 973 -314 966 -83 966 237 
L 966 4704 
L 1722 4704 
C 1549 4064 1382 3629 1126 3130 
C 1312 2938 1402 2822 1478 2701 
C 1638 2432 1722 2131 1722 1837 
C 1722 1523 1619 1376 1414 1376 
C 1325 1376 1254 1382 1114 1408 
C 1165 1280 1184 1197 1184 1056 
C 1184 973 1184 973 1184 941 
C 1274 934 1312 934 1376 934 
C 1914 934 2150 1203 2150 1805 
C 2150 2317 1997 2701 1594 3174 
C 1837 3706 2042 4198 2195 4672 
C 2227 4755 2246 4806 2291 4877 
L 2054 5158 
C 1971 5139 1850 5133 1658 5133 
L 922 5133 
C 762 5133 602 5139 486 5158 
C 506 5005 512 4858 512 4595 
L 512 243 
z
M 4851 1075 
C 5242 416 5421 205 5958 -262 
C 6074 -77 6118 -19 6259 122 
C 5766 480 5530 749 5248 1274 
L 4851 1075 
z
M 2880 1280 
C 2592 704 2387 461 1843 64 
C 1997 -51 2080 -141 2189 -288 
C 2726 179 2938 442 3290 1075 
L 2880 1280 
z
" transform="scale(0.015625)"/>
      <path id="HiraginoSans-W4-ff09" d="M 890 -531 
C 1261 -83 1434 179 1626 589 
C 1901 1178 2035 1773 2035 2432 
C 2035 3091 1901 3686 1626 4275 
C 1434 4685 1261 4947 890 5395 
L 230 5395 
C 710 4890 909 4608 1120 4166 
C 1376 3629 1498 3072 1498 2432 
C 1498 1792 1376 1235 1120 698 
C 909 256 710 -26 230 -531 
L 890 -531 
z
" transform="scale(0.015625)"/>
     </defs>
     <use xlink:href="#HiraginoSans-W4-43"/>
     <use xlink:href="#HiraginoSans-W4-6f" transform="translate(76.599991 0)"/>
     <use xlink:href="#HiraginoSans-W4-73" transform="translate(140.399979 0)"/>
     <use xlink:href="#HiraginoSans-W4-74" transform="translate(195.699966 0)"/>
     <use xlink:href="#HiraginoSans-W4-28" transform="translate(236.199951 0)"/>
     <use xlink:href="#HiraginoSans-W4-31" transform="translate(273.199936 0)"/>
     <use xlink:href="#HiraginoSans-W4-30" transform="translate(340.499924 0)"/>
     <use xlink:href="#HiraginoSans-W4-30" transform="translate(407.799911 0)"/>
     <use xlink:href="#HiraginoSans-W4-2c" transform="translate(475.099899 0)"/>
     <use xlink:href="#HiraginoSans-W4-20" transform="translate(500.099884 0)"/>
     <use xlink:href="#HiraginoSans-W4-45" transform="translate(533.399872 0)"/>
     <use xlink:href="#HiraginoSans-W4-5b" transform="translate(598.899857 0)"/>
     <use xlink:href="#HiraginoSans-W4-44" transform="translate(635.199844 0)"/>
     <use xlink:href="#HiraginoSans-W4-5d" transform="translate(712.299835 0)"/>
     <use xlink:href="#HiraginoSans-W4-29" transform="translate(748.599823 0)"/>
     <use xlink:href="#HiraginoSans-W4-3d" transform="translate(785.599808 0)"/>
     <use xlink:href="#HiraginoSans-W4-30" transform="translate(851.999802 0)"/>
     <use xlink:href="#HiraginoSans-W4-20" transform="translate(919.299789 0)"/>
     <use xlink:href="#HiraginoSans-W4-306f" transform="translate(952.599777 0)"/>
     <use xlink:href="#HiraginoSans-W4-5e7b" transform="translate(1052.599762 0)"/>
     <use xlink:href="#HiraginoSans-W4-ff08" transform="translate(1152.599747 0)"/>
     <use xlink:href="#HiraginoSans-W4-5b9f" transform="translate(1252.599731 0)"/>
     <use xlink:href="#HiraginoSans-W4-969b" transform="translate(1352.599716 0)"/>
     <use xlink:href="#HiraginoSans-W4-306f" transform="translate(1452.599701 0)"/>
     <use xlink:href="#HiraginoSans-W4-31" transform="translate(1552.599686 0)"/>
     <use xlink:href="#HiraginoSans-W4-31" transform="translate(1619.899673 0)"/>
     <use xlink:href="#HiraginoSans-W4-30" transform="translate(1687.199661 0)"/>
     <use xlink:href="#HiraginoSans-W4-ff09" transform="translate(1754.499649 0)"/>
    </g>
   </g>
   <g id="text_22">
    <!-- 平均で計画する2つの罠（非対称コスト：不足10 / 過剰1） -->
    <g transform="translate(125.806648 16.69125) scale(0.12 -0.12)">
     <defs>
      <path id="HiraginoSans-W4-3059" d="M 3507 4326 
C 2790 4307 2509 4301 1965 4282 
C 998 4243 960 4243 787 4243 
C 691 4243 640 4243 512 4250 
L 531 3699 
C 928 3763 2419 3846 3514 3866 
C 3514 3514 3520 3181 3526 3123 
L 3526 3078 
C 3366 3245 3117 3334 2816 3334 
C 2131 3334 1632 2874 1632 2246 
C 1632 1645 2093 1203 2720 1203 
C 3053 1203 3334 1318 3526 1536 
C 3597 1613 3635 1683 3699 1818 
C 3680 1562 3629 1376 3514 1171 
C 3238 672 2746 358 1920 134 
C 2074 -32 2118 -102 2246 -358 
C 2765 -166 3034 -32 3302 160 
C 3885 589 4179 1158 4179 1850 
C 4179 2157 4134 2368 4019 2643 
C 4019 3494 4019 3494 4019 3872 
C 4531 3878 4640 3878 4730 3878 
C 5434 3878 5664 3872 5907 3846 
L 5907 4384 
C 5696 4358 5210 4346 4013 4339 
C 4013 4883 4019 4979 4045 5178 
L 3469 5178 
C 3488 5043 3494 4979 3501 4806 
L 3507 4326 
z
M 2861 2906 
C 3059 2906 3238 2842 3366 2720 
C 3456 2630 3494 2534 3494 2381 
C 3494 1965 3200 1677 2784 1677 
C 2413 1677 2157 1926 2157 2285 
C 2157 2637 2458 2906 2861 2906 
z
" transform="scale(0.015625)"/>
      <path id="HiraginoSans-W4-308b" d="M 1485 4262 
C 1626 4282 1690 4288 1824 4294 
C 2758 4333 3482 4371 3718 4410 
C 3738 4410 3750 4410 3770 4416 
L 3776 4403 
C 3725 4352 3725 4352 3706 4333 
C 3686 4314 3680 4307 3654 4282 
C 2694 3334 1242 2131 678 1818 
L 1005 1331 
C 1760 2022 2746 2419 3693 2419 
C 4531 2419 5037 2067 5037 1478 
C 5037 1146 4883 858 4602 659 
C 4454 550 4314 486 4077 416 
C 3987 704 3917 851 3789 1024 
C 3533 1363 3149 1549 2720 1549 
C 2157 1549 1741 1210 1741 755 
C 1741 563 1818 352 1933 218 
C 2170 -58 2605 -198 3232 -198 
C 4646 -198 5587 480 5587 1491 
C 5587 2323 4896 2861 3821 2861 
C 3283 2861 2835 2752 2317 2490 
L 2304 2515 
C 2739 2784 3507 3430 4371 4262 
C 4563 4454 4602 4480 4698 4531 
L 4390 4947 
C 4301 4896 4243 4883 4058 4870 
C 3488 4826 2643 4787 2106 4787 
C 1779 4787 1645 4794 1459 4826 
L 1485 4262 
z
M 3578 288 
C 3373 256 3302 250 3155 250 
C 2598 250 2246 442 2246 742 
C 2246 966 2432 1107 2720 1107 
C 3155 1107 3443 826 3578 288 
z
" transform="scale(0.015625)"/>
      <path id="HiraginoSans-W4-3064" d="M 659 3110 
C 787 3168 851 3187 1139 3270 
C 2234 3578 3066 3725 3738 3725 
C 4589 3725 5107 3302 5107 2605 
C 5107 1894 4608 1325 3712 1018 
C 3219 851 2669 762 1958 742 
C 2086 518 2125 429 2189 166 
C 3226 262 3757 384 4346 672 
C 5216 1094 5702 1786 5702 2605 
C 5702 3629 4941 4262 3718 4262 
C 3181 4262 2618 4192 1882 4032 
C 698 3763 698 3763 518 3757 
L 659 3110 
z
" transform="scale(0.015625)"/>
      <path id="HiraginoSans-W4-306e" d="M 3053 422 
C 3200 243 3245 160 3328 -96 
C 3821 6 4090 90 4397 237 
C 5293 666 5798 1459 5798 2451 
C 5798 3802 4832 4698 3379 4698 
C 2509 4698 1792 4403 1274 3834 
C 832 3347 589 2707 589 2042 
C 589 1107 1062 422 1709 422 
C 2189 422 2573 806 2938 1645 
C 3238 2323 3469 3264 3578 4205 
C 3891 4186 4070 4141 4294 4032 
C 4902 3738 5242 3174 5242 2477 
C 5242 1734 4870 1107 4230 768 
C 3917 602 3610 512 3053 422 
z
M 3027 4192 
C 2944 3398 2714 2483 2458 1888 
C 2195 1286 1952 992 1702 992 
C 1370 992 1114 1453 1114 2035 
C 1114 2797 1491 3501 2112 3891 
C 2394 4077 2656 4160 3027 4192 
z
" transform="scale(0.015625)"/>
      <path id="HiraginoSans-W4-7f60" d="M 4723 2138 
C 5107 2138 5286 2131 5459 2118 
C 5440 2266 5434 2387 5434 2579 
L 5434 2970 
C 5434 3168 5440 3290 5459 3437 
C 5293 3418 5050 3411 4723 3411 
L 1690 3411 
C 1363 3411 1114 3418 947 3437 
C 966 3251 973 3123 973 2874 
L 973 77 
C 800 58 589 45 512 45 
C 480 45 378 45 320 51 
L 410 -467 
C 531 -448 627 -429 730 -416 
C 2048 -250 2278 -211 3526 45 
L 3520 486 
C 2688 301 2323 237 1440 128 
L 1440 1190 
L 3366 1197 
C 3590 717 3936 288 4339 -19 
C 4710 -301 5165 -493 5472 -493 
C 5638 -493 5766 -429 5862 -294 
C 5952 -166 6010 6 6080 410 
C 5901 467 5811 518 5664 640 
C 5613 141 5562 0 5414 0 
C 5312 0 5139 58 4941 160 
C 4506 390 4141 742 3885 1197 
L 5242 1203 
C 5568 1203 5760 1190 5946 1165 
L 5946 1645 
C 5779 1619 5555 1606 5242 1606 
L 3706 1600 
C 3654 1747 3629 1843 3565 2138 
L 4723 2138 
z
M 3091 2138 
C 3142 1862 3174 1741 3213 1600 
L 1440 1594 
L 1440 2138 
L 3091 2138 
z
M 1446 3008 
L 4979 3008 
L 4979 2528 
L 1446 2528 
L 1446 3008 
z
M 5734 4614 
C 5734 4826 5741 4941 5760 5094 
C 5594 5075 5389 5069 5043 5069 
L 1344 5069 
C 998 5069 813 5075 627 5094 
C 646 4941 653 4806 653 4614 
L 653 4211 
C 653 4019 646 3891 627 3744 
C 787 3757 954 3763 1312 3763 
L 5075 3763 
C 5434 3763 5594 3757 5760 3744 
C 5741 3891 5734 4000 5734 4211 
L 5734 4614 
z
M 2189 4128 
L 1114 4128 
L 1114 4678 
L 2189 4678 
L 2189 4128 
z
M 3731 4128 
L 2624 4128 
L 2624 4678 
L 3731 4678 
L 3731 4128 
z
M 4166 4128 
L 4166 4678 
L 5274 4678 
L 5274 4128 
L 4166 4128 
z
" transform="scale(0.015625)"/>
      <path id="HiraginoSans-W4-975e" d="M 2285 3866 
L 2285 3046 
L 1203 3046 
C 858 3046 730 3053 589 3078 
L 589 2579 
C 736 2605 909 2611 1203 2611 
L 2278 2611 
C 2266 2298 2246 2131 2214 1869 
C 1370 1638 608 1485 269 1466 
L 416 934 
C 493 966 634 1005 755 1037 
C 1683 1267 1747 1280 2112 1389 
C 2010 1075 1882 851 1677 621 
C 1408 326 1133 141 589 -102 
C 736 -237 845 -371 947 -531 
C 1990 13 2445 563 2656 1549 
C 2931 1632 2931 1632 3155 1702 
L 3149 2150 
L 2726 2016 
C 2752 2310 2771 2618 2771 2970 
L 2771 4582 
C 2771 5018 2778 5146 2803 5312 
L 2240 5312 
C 2272 5114 2285 4947 2285 4595 
L 2285 4314 
L 1024 4314 
C 723 4314 576 4320 416 4352 
L 416 3834 
C 538 3859 730 3866 1024 3866 
L 2285 3866 
z
M 4096 1088 
L 5421 1088 
C 5683 1088 5869 1075 6048 1050 
L 6048 1574 
C 5888 1549 5728 1542 5421 1542 
L 4096 1542 
L 4096 2522 
L 5254 2522 
C 5542 2522 5709 2515 5862 2490 
L 5862 2995 
C 5722 2970 5594 2963 5254 2963 
L 4096 2963 
L 4096 3853 
L 5376 3853 
C 5690 3853 5850 3846 5990 3821 
L 5990 4339 
C 5830 4307 5696 4301 5376 4301 
L 4096 4301 
L 4096 4570 
C 4096 4934 4102 5126 4134 5312 
L 3584 5312 
C 3610 5107 3616 4947 3616 4570 
L 3616 294 
C 3616 -122 3610 -275 3578 -474 
L 4134 -474 
C 4102 -282 4096 -115 4096 294 
L 4096 1088 
z
" transform="scale(0.015625)"/>
      <path id="HiraginoSans-W4-5bfe" d="M 1600 4256 
L 928 4256 
C 685 4256 518 4269 326 4294 
L 326 3789 
C 493 3814 646 3821 902 3821 
L 2195 3821 
C 2163 3251 2061 2720 1901 2240 
C 1459 2765 1280 2970 902 3354 
L 557 3034 
C 1011 2586 1325 2240 1696 1760 
C 1350 1069 915 563 262 64 
C 435 -70 512 -147 627 -326 
C 1267 218 1632 672 2003 1350 
C 2317 922 2547 563 2778 141 
L 3155 518 
C 2842 1011 2592 1370 2234 1824 
C 2490 2438 2637 3098 2688 3821 
C 2944 3821 3098 3814 3245 3795 
L 3245 4294 
C 3059 4269 2899 4256 2650 4256 
L 2080 4256 
L 2080 4666 
C 2080 4934 2093 5101 2118 5299 
L 1562 5299 
C 1594 5133 1600 5005 1600 4666 
L 1600 4256 
z
M 4877 3437 
L 4877 224 
C 4877 96 4826 70 4544 70 
C 4339 70 4013 96 3725 141 
C 3802 -26 3840 -141 3878 -365 
C 4134 -384 4320 -390 4550 -390 
C 5229 -390 5363 -294 5363 198 
L 5363 3437 
L 5498 3437 
C 5734 3437 5888 3430 6054 3405 
C 6067 3405 6093 3405 6118 3398 
L 6118 3923 
C 5958 3898 5760 3885 5498 3885 
L 5363 3885 
L 5363 4544 
C 5363 4851 5376 5056 5402 5254 
L 4832 5254 
C 4864 5082 4877 4883 4877 4544 
L 4877 3885 
L 3936 3885 
C 3654 3885 3488 3891 3328 3917 
L 3328 3398 
C 3501 3424 3674 3437 3930 3437 
L 4877 3437 
z
M 3130 2714 
C 3526 2234 3757 1869 4045 1222 
L 4474 1504 
C 4173 2093 3968 2413 3539 2950 
L 3130 2714 
z
" transform="scale(0.015625)"/>
      <path id="HiraginoSans-W4-79f0" d="M 2362 3162 
C 2534 3040 2598 2989 2726 2835 
C 3021 3226 3162 3437 3366 3853 
L 4109 3853 
L 4109 230 
C 4109 83 4070 58 3866 58 
C 3680 58 3411 83 3162 128 
C 3232 -64 3251 -154 3264 -365 
C 3526 -384 3667 -390 3878 -390 
C 4429 -390 4582 -269 4582 154 
L 4582 3853 
L 5408 3853 
C 5670 3853 5869 3840 6080 3814 
L 6080 4320 
C 5901 4294 5722 4282 5402 4282 
L 3565 4282 
C 3667 4512 3750 4736 3814 4954 
C 3846 5056 3885 5165 3917 5242 
L 3398 5370 
C 3322 4710 2925 3827 2438 3251 
L 2438 3712 
C 2317 3693 2202 3686 2022 3686 
L 1805 3686 
L 1805 4678 
C 2067 4755 2182 4800 2394 4890 
C 2528 4947 2598 4973 2598 4973 
L 2291 5376 
C 2182 5293 2118 5261 2003 5210 
C 1587 5037 1050 4902 403 4813 
C 493 4685 557 4550 608 4403 
C 966 4467 1088 4493 1344 4550 
L 1344 3686 
L 870 3686 
C 672 3686 512 3699 365 3718 
L 365 3226 
C 512 3245 659 3258 858 3258 
L 1286 3258 
C 1216 3014 1101 2720 954 2400 
C 723 1926 506 1594 211 1286 
C 339 1120 384 1050 474 845 
C 890 1331 1146 1830 1376 2573 
C 1357 2259 1344 1933 1344 1581 
L 1344 237 
C 1344 -115 1338 -288 1306 -499 
L 1843 -499 
C 1811 -307 1805 -147 1805 237 
L 1805 1792 
C 1805 2042 1792 2381 1773 2688 
C 1939 2240 2054 2029 2298 1709 
C 2400 1882 2458 1971 2566 2099 
C 2202 2470 1990 2810 1824 3258 
L 2016 3258 
C 2227 3258 2368 3251 2432 3245 
L 2362 3162 
z
M 3130 3034 
C 3046 1997 2829 1229 2438 582 
C 2618 493 2707 435 2867 301 
C 3066 672 3187 973 3315 1466 
C 3450 1946 3475 2086 3597 2970 
L 3130 3034 
z
M 5088 2970 
C 5242 1709 5408 1056 5798 269 
C 5958 416 6061 499 6221 595 
C 5843 1306 5658 1958 5542 3021 
L 5088 2970 
z
" transform="scale(0.015625)"/>
      <path id="HiraginoSans-W4-ff1a" d="M 3565 4192 
L 2842 4192 
L 2842 3469 
L 3565 3469 
L 3565 4192 
z
M 3565 672 
L 3565 1395 
L 2842 1395 
L 2842 672 
L 3565 672 
z
" transform="scale(0.015625)"/>
      <path id="HiraginoSans-W4-4e0d" d="M 3194 4454 
C 2874 3866 2662 3571 2208 3098 
C 1638 2496 1088 2086 211 1606 
C 384 1427 467 1312 550 1152 
C 1619 1818 2246 2349 2854 3117 
C 2842 2835 2842 2694 2842 2426 
L 2842 243 
C 2842 0 2822 -262 2797 -480 
L 3411 -480 
C 3379 -256 3366 -32 3366 243 
L 3366 3738 
C 3584 4070 3642 4173 3789 4454 
L 5306 4454 
C 5562 4454 5818 4442 6035 4416 
L 6035 4966 
C 5843 4941 5626 4928 5293 4928 
L 1088 4928 
C 800 4928 563 4941 352 4966 
L 352 4416 
C 563 4442 851 4454 1101 4454 
L 3194 4454 
z
M 3610 3110 
C 4294 2266 4941 1722 5888 1190 
C 6010 1408 6093 1530 6227 1670 
C 5760 1888 5350 2138 4941 2464 
C 4576 2752 4320 3008 3968 3443 
L 3610 3110 
z
" transform="scale(0.015625)"/>
      <path id="HiraginoSans-W4-8db3" d="M 2995 371 
C 2458 582 2061 973 1754 1606 
C 1811 1786 1837 1901 1894 2157 
C 1939 2336 1958 2406 1990 2509 
L 1472 2618 
C 1453 2227 1318 1696 1120 1229 
C 896 691 653 320 237 -102 
C 410 -205 493 -275 640 -442 
C 1037 0 1286 410 1555 1056 
C 2163 32 3046 -352 4768 -352 
C 5101 -352 5562 -346 5875 -333 
C 5914 -90 5939 -6 6035 192 
C 5574 160 5050 141 4710 141 
C 4275 141 3878 173 3488 243 
L 3488 1498 
L 5011 1498 
C 5312 1498 5446 1491 5638 1466 
L 5638 1978 
C 5485 1952 5338 1946 5011 1946 
L 3488 1946 
L 3488 2970 
L 4659 2970 
C 4954 2970 5126 2963 5325 2944 
C 5306 3123 5299 3238 5299 3437 
L 5299 4582 
C 5299 4787 5306 4915 5325 5075 
C 5158 5050 4966 5043 4602 5043 
L 1837 5043 
C 1536 5043 1312 5050 1120 5075 
C 1139 4909 1146 4774 1146 4582 
L 1146 3437 
C 1146 3245 1139 3110 1120 2944 
C 1312 2963 1504 2970 1792 2970 
L 2995 2970 
L 2995 371 
z
M 4813 4595 
L 4813 3405 
L 1632 3405 
L 1632 4595 
L 4813 4595 
z
" transform="scale(0.015625)"/>
      <path id="HiraginoSans-W4-2f" d="M 2432 4934 
L 122 -979 
L 691 -979 
L 2995 4934 
L 2432 4934 
z
" transform="scale(0.015625)"/>
      <path id="HiraginoSans-W4-904e" d="M 5408 4608 
C 5408 4883 5414 5024 5434 5152 
C 5274 5133 5152 5126 4845 5126 
L 3162 5126 
C 2931 5126 2765 5133 2586 5152 
C 2598 5005 2611 4858 2611 4608 
L 2611 3270 
L 2566 3270 
C 2336 3270 2202 3277 2093 3296 
C 2112 3136 2118 3021 2118 2784 
L 2118 1069 
C 2118 813 2106 666 2086 493 
L 2611 493 
C 2592 646 2586 800 2586 1069 
L 2586 2874 
L 5408 2874 
L 5408 1005 
C 5408 928 5344 896 5184 896 
C 5005 896 4832 909 4576 947 
C 4634 787 4659 678 4685 506 
C 4915 499 5018 499 5120 499 
C 5741 499 5875 576 5875 928 
L 5875 2778 
C 5875 3014 5882 3149 5901 3296 
C 5786 3277 5683 3270 5408 3270 
L 5408 4608 
z
M 3699 3270 
L 3078 3270 
L 3078 4717 
L 4954 4717 
L 4954 4288 
L 4173 4288 
C 3962 4288 3795 4294 3680 4307 
C 3693 4179 3699 4058 3699 3840 
L 3699 3270 
z
M 4141 3270 
L 4141 3904 
L 4954 3904 
L 4954 3270 
L 4141 3270 
z
M 4890 2144 
C 4890 2323 4890 2406 4902 2522 
C 4819 2509 4723 2502 4467 2502 
L 3526 2502 
C 3290 2502 3168 2509 3098 2522 
C 3110 2400 3117 2298 3117 2131 
L 3117 1280 
C 3117 1101 3110 998 3098 883 
L 3526 883 
L 3526 1197 
L 4474 1197 
C 4653 1197 4762 1190 4902 1178 
C 4890 1280 4890 1350 4890 1555 
L 4890 2144 
z
M 3526 2144 
L 4474 2144 
L 4474 1568 
L 3526 1568 
L 3526 2144 
z
M 358 4902 
C 806 4474 979 4269 1357 3712 
L 1747 4058 
C 1357 4582 1184 4774 717 5216 
L 358 4902 
z
M 282 2317 
C 442 2342 538 2349 736 2349 
L 1107 2349 
L 1107 851 
C 710 474 422 256 141 128 
L 384 -384 
C 538 -250 595 -205 608 -192 
C 973 102 1088 205 1331 454 
C 1504 205 1664 51 1894 -77 
C 2285 -288 2656 -346 3680 -346 
C 4493 -346 5382 -326 6022 -301 
C 6067 -45 6080 -13 6189 237 
C 5498 147 4646 109 3322 109 
C 2586 109 2202 198 1882 442 
C 1741 550 1670 640 1581 838 
L 1581 2131 
C 1581 2496 1581 2605 1606 2810 
C 1446 2790 1325 2784 1120 2784 
L 781 2784 
C 531 2784 422 2790 282 2816 
L 282 2317 
z
" transform="scale(0.015625)"/>
      <path id="HiraginoSans-W4-5270" d="M 1811 1574 
C 1651 1357 1594 1286 1478 1158 
C 1152 813 845 582 294 269 
C 416 128 499 0 576 -166 
C 1318 339 1632 653 2035 1267 
C 2016 1082 2010 973 2010 742 
L 2010 13 
C 2010 -243 2003 -339 1971 -512 
L 2483 -512 
C 2458 -352 2451 -256 2451 13 
L 2451 762 
C 2451 992 2445 1114 2426 1286 
C 2822 755 3136 461 3750 58 
C 3866 282 3898 339 4032 499 
C 3424 800 3110 1043 2637 1574 
L 3475 1574 
C 3731 1574 3840 1568 3974 1555 
L 3974 1978 
C 3840 1965 3789 1958 3514 1958 
L 3514 2682 
L 3565 2682 
C 3814 2682 3974 2675 4096 2662 
L 4096 3091 
C 3949 3078 3814 3072 3558 3072 
L 3514 3072 
L 3514 3738 
C 3731 3738 3846 3731 3974 3712 
L 3974 4147 
C 3846 4128 3712 4122 3482 4122 
L 2445 4122 
L 2445 4717 
C 2957 4781 3162 4813 3507 4883 
C 3718 4934 3718 4934 3789 4947 
L 3450 5357 
C 3309 5293 3072 5229 2797 5184 
C 2010 5043 1466 4986 550 4947 
C 640 4800 678 4704 717 4538 
C 1171 4570 1504 4602 2010 4659 
L 2010 4122 
L 992 4122 
C 736 4122 582 4128 454 4154 
L 454 3706 
C 602 3731 704 3738 966 3738 
L 966 3072 
L 768 3072 
C 506 3072 390 3078 237 3104 
L 237 2656 
C 384 2675 525 2682 774 2682 
L 966 2682 
L 966 1958 
L 922 1958 
C 653 1958 538 1965 397 1984 
L 397 1549 
C 544 1568 672 1574 928 1574 
L 1811 1574 
z
M 2010 3072 
L 1395 3072 
L 1395 3738 
L 2010 3738 
L 2010 3072 
z
M 2445 3072 
L 2445 3738 
L 3091 3738 
L 3091 3072 
L 2445 3072 
z
M 2010 1958 
L 1395 1958 
L 1395 2682 
L 2010 2682 
L 2010 1958 
z
M 2445 1958 
L 2445 2682 
L 3091 2682 
L 3091 1958 
L 2445 1958 
z
M 4256 4877 
C 4282 4698 4288 4512 4288 4186 
L 4288 1645 
C 4288 1242 4282 1120 4256 934 
L 4774 941 
C 4749 1107 4742 1222 4742 1645 
L 4742 4192 
C 4742 4544 4749 4717 4774 4883 
L 4256 4877 
z
M 5427 5286 
C 5459 5082 5472 4883 5472 4499 
L 5472 224 
C 5472 70 5414 32 5203 32 
C 4979 32 4698 51 4378 96 
C 4454 -90 4486 -192 4512 -390 
C 4717 -403 5024 -416 5133 -416 
C 5549 -416 5722 -378 5824 -269 
C 5907 -179 5946 -38 5946 198 
L 5946 4512 
C 5946 4896 5958 5107 5990 5286 
L 5427 5286 
z
" transform="scale(0.015625)"/>
     </defs>
     <use xlink:href="#HiraginoSans-W4-5e73"/>
     <use xlink:href="#HiraginoSans-W4-5747" transform="translate(99.999985 0)"/>
     <use xlink:href="#HiraginoSans-W4-3067" transform="translate(199.999969 0)"/>
     <use xlink:href="#HiraginoSans-W4-8a08" transform="translate(299.999954 0)"/>
     <use xlink:href="#HiraginoSans-W4-753b" transform="translate(399.999939 0)"/>
     <use xlink:href="#HiraginoSans-W4-3059" transform="translate(499.999924 0)"/>
     <use xlink:href="#HiraginoSans-W4-308b" transform="translate(599.999908 0)"/>
     <use xlink:href="#HiraginoSans-W4-32" transform="translate(699.999893 0)"/>
     <use xlink:href="#HiraginoSans-W4-3064" transform="translate(767.299881 0)"/>
     <use xlink:href="#HiraginoSans-W4-306e" transform="translate(867.299866 0)"/>
     <use xlink:href="#HiraginoSans-W4-7f60" transform="translate(967.29985 0)"/>
     <use xlink:href="#HiraginoSans-W4-ff08" transform="translate(1067.299835 0)"/>
     <use xlink:href="#HiraginoSans-W4-975e" transform="translate(1167.29982 0)"/>
     <use xlink:href="#HiraginoSans-W4-5bfe" transform="translate(1267.299805 0)"/>
     <use xlink:href="#HiraginoSans-W4-79f0" transform="translate(1367.299789 0)"/>
     <use xlink:href="#HiraginoSans-W4-30b3" transform="translate(1467.299774 0)"/>
     <use xlink:href="#HiraginoSans-W4-30b9" transform="translate(1567.299759 0)"/>
     <use xlink:href="#HiraginoSans-W4-30c8" transform="translate(1667.299744 0)"/>
     <use xlink:href="#HiraginoSans-W4-ff1a" transform="translate(1767.299728 0)"/>
     <use xlink:href="#HiraginoSans-W4-4e0d" transform="translate(1867.299713 0)"/>
     <use xlink:href="#HiraginoSans-W4-8db3" transform="translate(1967.299698 0)"/>
     <use xlink:href="#HiraginoSans-W4-31" transform="translate(2067.299683 0)"/>
     <use xlink:href="#HiraginoSans-W4-30" transform="translate(2134.59967 0)"/>
     <use xlink:href="#HiraginoSans-W4-20" transform="translate(2201.899658 0)"/>
     <use xlink:href="#HiraginoSans-W4-2f" transform="translate(2235.199646 0)"/>
     <use xlink:href="#HiraginoSans-W4-20" transform="translate(2283.899643 0)"/>
     <use xlink:href="#HiraginoSans-W4-904e" transform="translate(2317.199631 0)"/>
     <use xlink:href="#HiraginoSans-W4-5270" transform="translate(2417.199615 0)"/>
     <use xlink:href="#HiraginoSans-W4-31" transform="translate(2517.1996 0)"/>
     <use xlink:href="#HiraginoSans-W4-ff09" transform="translate(2584.499588 0)"/>
    </g>
   </g>
   <g id="PathCollection_1">
    <defs>
     <path id="m3f3e5d6233" d="M 0 4.1833 
C 1.109424 4.1833 2.173559 3.742521 2.95804 2.95804 
C 3.742521 2.173559 4.1833 1.109424 4.1833 0 
C 4.1833 -1.109424 3.742521 -2.173559 2.95804 -2.95804 
C 2.173559 -3.742521 1.109424 -4.1833 0 -4.1833 
C -1.109424 -4.1833 -2.173559 -3.742521 -2.95804 -2.95804 
C -3.742521 -2.173559 -4.1833 -1.109424 -4.1833 0 
C -4.1833 1.109424 -3.742521 2.173559 -2.95804 2.95804 
C -2.173559 3.742521 -1.109424 4.1833 0 4.1833 
z
" style="stroke: #ea4335"/>
    </defs>
    <g clip-path="url(#pd715a0ee8c)">
     <use xlink:href="#m3f3e5d6233" x="214.534112" y="139.030093" style="fill: #ea4335; stroke: #ea4335"/>
    </g>
   </g>
   <g id="PathCollection_2">
    <defs>
     <path id="ma4280e4952" d="M 0 4.1833 
C 1.109424 4.1833 2.173559 3.742521 2.95804 2.95804 
C 3.742521 2.173559 4.1833 1.109424 4.1833 0 
C 4.1833 -1.109424 3.742521 -2.173559 2.95804 -2.95804 
C 2.173559 -3.742521 1.109424 -4.1833 0 -4.1833 
C -1.109424 -4.1833 -2.173559 -3.742521 -2.95804 -2.95804 
C -3.742521 -2.173559 -4.1833 -1.109424 -4.1833 0 
C -4.1833 1.109424 -3.742521 2.173559 -2.95804 2.95804 
C -2.173559 3.742521 -1.109424 4.1833 0 4.1833 
z
" style="stroke: #34a853"/>
    </defs>
    <g clip-path="url(#pd715a0ee8c)">
     <use xlink:href="#ma4280e4952" x="359.217308" y="243.735052" style="fill: #34a853; stroke: #34a853"/>
    </g>
   </g>
   <g id="legend_1">
    <g id="patch_9">
     <path d="M 369.902983 46.29125 
L 518.602983 46.29125 
Q 520.602983 46.29125 520.602983 44.29125 
L 520.602983 29.69125 
Q 520.602983 27.69125 518.602983 27.69125 
L 369.902983 27.69125 
Q 367.902983 27.69125 367.902983 29.69125 
L 367.902983 44.29125 
Q 367.902983 46.29125 369.902983 46.29125 
z
" style="fill: #ffffff; opacity: 0.8; stroke: #cccccc; stroke-linejoin: miter"/>
    </g>
    <g id="line2d_35">
     <path d="M 371.902983 36.69125 
L 381.902983 36.69125 
L 391.902983 36.69125 
" style="fill: none; stroke: #4285f4; stroke-width: 2.5; stroke-linecap: square"/>
    </g>
    <g id="text_23">
     <!-- 期待コスト $E[\mathrm{Cost}(q,D)]$ -->
     <g transform="translate(399.902983 40.19125) scale(0.1 -0.1)">
      <defs>
       <path id="DejaVuSans-Oblique-45" d="M 1081 4666 
L 4031 4666 
L 3928 4134 
L 1606 4134 
L 1338 2753 
L 3566 2753 
L 3463 2222 
L 1234 2222 
L 909 531 
L 3284 531 
L 3181 0 
L 172 0 
L 1081 4666 
z
" transform="scale(0.015625)"/>
       <path id="DejaVuSans-5b" d="M 550 4863 
L 1875 4863 
L 1875 4416 
L 1125 4416 
L 1125 -397 
L 1875 -397 
L 1875 -844 
L 550 -844 
L 550 4863 
z
" transform="scale(0.015625)"/>
       <path id="DejaVuSans-43" d="M 4122 4306 
L 4122 3641 
Q 3803 3938 3442 4084 
Q 3081 4231 2675 4231 
Q 1875 4231 1450 3742 
Q 1025 3253 1025 2328 
Q 1025 1406 1450 917 
Q 1875 428 2675 428 
Q 3081 428 3442 575 
Q 3803 722 4122 1019 
L 4122 359 
Q 3791 134 3420 21 
Q 3050 -91 2638 -91 
Q 1578 -91 968 557 
Q 359 1206 359 2328 
Q 359 3453 968 4101 
Q 1578 4750 2638 4750 
Q 3056 4750 3426 4639 
Q 3797 4528 4122 4306 
z
" transform="scale(0.015625)"/>
       <path id="DejaVuSans-6f" d="M 1959 3097 
Q 1497 3097 1228 2736 
Q 959 2375 959 1747 
Q 959 1119 1226 758 
Q 1494 397 1959 397 
Q 2419 397 2687 759 
Q 2956 1122 2956 1747 
Q 2956 2369 2687 2733 
Q 2419 3097 1959 3097 
z
M 1959 3584 
Q 2709 3584 3137 3096 
Q 3566 2609 3566 1747 
Q 3566 888 3137 398 
Q 2709 -91 1959 -91 
Q 1206 -91 779 398 
Q 353 888 353 1747 
Q 353 2609 779 3096 
Q 1206 3584 1959 3584 
z
" transform="scale(0.015625)"/>
       <path id="DejaVuSans-73" d="M 2834 3397 
L 2834 2853 
Q 2591 2978 2328 3040 
Q 2066 3103 1784 3103 
Q 1356 3103 1142 2972 
Q 928 2841 928 2578 
Q 928 2378 1081 2264 
Q 1234 2150 1697 2047 
L 1894 2003 
Q 2506 1872 2764 1633 
Q 3022 1394 3022 966 
Q 3022 478 2636 193 
Q 2250 -91 1575 -91 
Q 1294 -91 989 -36 
Q 684 19 347 128 
L 347 722 
Q 666 556 975 473 
Q 1284 391 1588 391 
Q 1994 391 2212 530 
Q 2431 669 2431 922 
Q 2431 1156 2273 1281 
Q 2116 1406 1581 1522 
L 1381 1569 
Q 847 1681 609 1914 
Q 372 2147 372 2553 
Q 372 3047 722 3315 
Q 1072 3584 1716 3584 
Q 2034 3584 2315 3537 
Q 2597 3491 2834 3397 
z
" transform="scale(0.015625)"/>
       <path id="DejaVuSans-74" d="M 1172 4494 
L 1172 3500 
L 2356 3500 
L 2356 3053 
L 1172 3053 
L 1172 1153 
Q 1172 725 1289 603 
Q 1406 481 1766 481 
L 2356 481 
L 2356 0 
L 1766 0 
Q 1100 0 847 248 
Q 594 497 594 1153 
L 594 3053 
L 172 3053 
L 172 3500 
L 594 3500 
L 594 4494 
L 1172 4494 
z
" transform="scale(0.015625)"/>
       <path id="DejaVuSans-28" d="M 1984 4856 
Q 1566 4138 1362 3434 
Q 1159 2731 1159 2009 
Q 1159 1288 1364 580 
Q 1569 -128 1984 -844 
L 1484 -844 
Q 1016 -109 783 600 
Q 550 1309 550 2009 
Q 550 2706 781 3412 
Q 1013 4119 1484 4856 
L 1984 4856 
z
" transform="scale(0.015625)"/>
       <path id="DejaVuSans-Oblique-71" d="M 2669 525 
Q 2438 222 2123 65 
Q 1809 -91 1428 -91 
Q 897 -91 595 267 
Q 294 625 294 1253 
Q 294 1759 480 2231 
Q 666 2703 1013 3078 
Q 1238 3322 1530 3453 
Q 1822 3584 2144 3584 
Q 2531 3584 2781 3431 
Q 3031 3278 3144 2969 
L 3244 3494 
L 3822 3494 
L 2888 -1319 
L 2309 -1319 
L 2669 525 
z
M 891 1338 
Q 891 875 1084 633 
Q 1278 391 1644 391 
Q 2188 391 2572 911 
Q 2956 1431 2956 2175 
Q 2956 2625 2757 2864 
Q 2559 3103 2188 3103 
Q 1916 3103 1684 2976 
Q 1453 2850 1281 2606 
Q 1100 2350 995 2006 
Q 891 1663 891 1338 
z
" transform="scale(0.015625)"/>
       <path id="DejaVuSans-2c" d="M 750 794 
L 1409 794 
L 1409 256 
L 897 -744 
L 494 -744 
L 750 256 
L 750 794 
z
" transform="scale(0.015625)"/>
       <path id="DejaVuSans-Oblique-44" d="M 1081 4666 
L 2438 4666 
Q 3519 4666 4070 4208 
Q 4622 3750 4622 2847 
Q 4622 2250 4412 1698 
Q 4203 1147 3834 769 
Q 3463 381 2891 190 
Q 2319 0 1538 0 
L 172 0 
L 1081 4666 
z
M 1613 4147 
L 909 519 
L 1734 519 
Q 2794 519 3375 1128 
Q 3956 1738 3956 2847 
Q 3956 3519 3581 3833 
Q 3206 4147 2406 4147 
L 1613 4147 
z
" transform="scale(0.015625)"/>
       <path id="DejaVuSans-29" d="M 513 4856 
L 1013 4856 
Q 1481 4119 1714 3412 
Q 1947 2706 1947 2009 
Q 1947 1309 1714 600 
Q 1481 -109 1013 -844 
L 513 -844 
Q 928 -128 1133 580 
Q 1338 1288 1338 2009 
Q 1338 2731 1133 3434 
Q 928 4138 513 4856 
z
" transform="scale(0.015625)"/>
       <path id="DejaVuSans-5d" d="M 1947 4863 
L 1947 -844 
L 622 -844 
L 622 -397 
L 1369 -397 
L 1369 4416 
L 622 4416 
L 622 4863 
L 1947 4863 
z
" transform="scale(0.015625)"/>
      </defs>
      <use xlink:href="#HiraginoSans-W4-671f" transform="translate(0 0.59375)"/>
      <use xlink:href="#HiraginoSans-W4-5f85" transform="translate(99.999985 0.59375)"/>
      <use xlink:href="#HiraginoSans-W4-30b3" transform="translate(199.999969 0.59375)"/>
      <use xlink:href="#HiraginoSans-W4-30b9" transform="translate(299.999954 0.59375)"/>
      <use xlink:href="#HiraginoSans-W4-30c8" transform="translate(399.999939 0.59375)"/>
      <use xlink:href="#HiraginoSans-W4-20" transform="translate(499.999924 0.59375)"/>
      <use xlink:href="#DejaVuSans-Oblique-45" transform="translate(533.299911 0.59375)"/>
      <use xlink:href="#DejaVuSans-5b" transform="translate(596.483505 0.59375)"/>
      <use xlink:href="#DejaVuSans-43" transform="translate(635.497177 0.59375)"/>
      <use xlink:href="#DejaVuSans-6f" transform="translate(705.321396 0.59375)"/>
      <use xlink:href="#DejaVuSans-73" transform="translate(766.503036 0.59375)"/>
      <use xlink:href="#DejaVuSans-74" transform="translate(818.602646 0.59375)"/>
      <use xlink:href="#DejaVuSans-28" transform="translate(857.81163 0.59375)"/>
      <use xlink:href="#DejaVuSans-Oblique-71" transform="translate(896.825302 0.59375)"/>
      <use xlink:href="#DejaVuSans-2c" transform="translate(960.301865 0.59375)"/>
      <use xlink:href="#DejaVuSans-Oblique-44" transform="translate(1011.571396 0.59375)"/>
      <use xlink:href="#DejaVuSans-29" transform="translate(1088.573349 0.59375)"/>
      <use xlink:href="#DejaVuSans-5d" transform="translate(1127.587021 0.59375)"/>
     </g>
    </g>
   </g>
  </g>
 </g>
 <defs>
  <clipPath id="pd715a0ee8c">
   <rect x="48.148438" y="22.69125" width="477.454545" height="255.945455"/>
  </clipPath>
 </defs>
</svg>
